<svg width="87" height="86" viewBox="0 0 87 86" fill="none" xmlns="http://www.w3.org/2000/svg">
<rect width="87" height="86" rx="10" fill="#FFDC83"/>
<path fill-rule="evenodd" clip-rule="evenodd" d="M43.4997 33.9287C37.4878 33.9287 32.6143 39.073 32.6143 45.4189C32.6143 51.7647 37.4878 56.909 43.4997 56.909C49.5115 56.909 54.3851 51.7647 54.3851 45.4189C54.3851 39.073 49.5115 33.9287 43.4997 33.9287ZM36.0518 45.4189C36.0518 41.077 39.3863 37.5572 43.4997 37.5572C47.613 37.5572 50.9476 41.077 50.9476 45.4189C50.9476 49.7607 47.613 53.2805 43.4997 53.2805C39.3863 53.2805 36.0518 49.7607 36.0518 45.4189Z" fill="white"/>
<path fill-rule="evenodd" clip-rule="evenodd" d="M51.8646 19.3933C47.0941 14.9173 39.9053 14.9173 35.1348 19.3933L34.6403 19.8572C33.2833 21.1305 31.5308 21.8338 29.7151 21.8338C23.7224 21.8338 18.8643 26.9618 18.8643 33.2875V45.5283C18.8642 49.9709 18.8642 53.4532 19.1478 56.216C19.4372 59.0354 20.0383 61.3199 21.3809 63.2704C22.1936 64.4512 23.1774 65.4896 24.296 66.3475C26.1439 67.7646 28.3081 68.3992 30.9791 68.7046C33.5964 69.004 36.8955 69.0039 41.1041 69.0039H45.8951C50.1037 69.0039 53.4029 69.004 56.0203 68.7046C58.6913 68.3992 60.8555 67.7646 62.7033 66.3475C63.822 65.4896 64.8057 64.4512 65.6185 63.2704C66.961 61.3199 67.5622 59.0354 67.8515 56.216C68.1351 53.4533 68.1351 49.971 68.1351 45.5286V33.2875C68.1351 26.9618 63.277 21.8338 57.2842 21.8338C55.4686 21.8338 53.716 21.1305 52.359 19.8572L51.8646 19.3933ZM37.4185 22.1052C40.8866 18.8512 46.1128 18.8512 49.5808 22.1052L50.0753 22.5692C52.0615 24.4328 54.6267 25.4623 57.2842 25.4623C61.3785 25.4623 64.6976 28.9657 64.6976 33.2875V45.4189C64.6976 49.9945 64.6952 53.2806 64.434 55.8252C64.1763 58.3359 63.6833 59.9088 62.8375 61.1376C62.2368 62.0104 61.5096 62.7779 60.6828 63.412C59.5186 64.3048 58.0285 64.8253 55.65 65.0973C53.2393 65.373 50.1262 65.3755 45.7913 65.3755H41.208C36.8732 65.3755 33.7601 65.373 31.3494 65.0973C28.9708 64.8253 27.4807 64.3048 26.3166 63.412C25.4897 62.7779 24.7626 62.0104 24.1619 61.1376C23.316 59.9088 22.823 58.3359 22.5653 55.8252C22.3041 53.2806 22.3018 49.9945 22.3018 45.4189V33.2875C22.3018 28.9657 25.6208 25.4623 29.7151 25.4623C32.3727 25.4623 34.9378 24.4328 36.9241 22.5692L37.4185 22.1052Z" fill="white"/>
<path d="M54.958 33.3241C54.958 34.66 55.984 35.7431 57.2497 35.7431C58.5153 35.7431 59.5413 34.66 59.5413 33.3241C59.5413 31.9881 58.5153 30.9051 57.2497 30.9051C55.984 30.9051 54.958 31.9881 54.958 33.3241Z" fill="white"/>
</svg>
