<svg width="50" height="53" viewBox="0 0 50 53" fill="none" xmlns="http://www.w3.org/2000/svg">
<path fill-rule="evenodd" clip-rule="evenodd" d="M24.9997 17.9286C18.9878 17.9286 14.1143 23.0729 14.1143 29.4187C14.1143 35.7646 18.9878 40.9089 24.9997 40.9089C31.0115 40.9089 35.8851 35.7646 35.8851 29.4187C35.8851 23.0729 31.0115 17.9286 24.9997 17.9286ZM17.5518 29.4187C17.5518 25.0768 20.8863 21.557 24.9997 21.557C29.113 21.557 32.4476 25.0768 32.4476 29.4187C32.4476 33.7606 29.113 37.2804 24.9997 37.2804C20.8863 37.2804 17.5518 33.7606 17.5518 29.4187Z" fill="white"/>
<path fill-rule="evenodd" clip-rule="evenodd" d="M33.3646 3.39315C28.5941 -1.08287 21.4053 -1.08287 16.6348 3.39315L16.1403 3.85707C14.7833 5.13033 13.0308 5.83365 11.2151 5.83365C5.22236 5.83365 0.364258 10.9617 0.364258 17.2874V29.5282C0.364239 33.9707 0.364225 37.4531 0.647802 40.2159C0.937189 43.0353 1.53833 45.3198 2.88086 47.2702C3.69361 48.451 4.67738 49.4895 5.79605 50.3474C7.64387 51.7645 9.80808 52.399 12.4791 52.7045C15.0964 53.0038 18.3955 53.0038 22.6041 53.0038H27.3951C31.6037 53.0038 34.9029 53.0038 37.5203 52.7045C40.1913 52.399 42.3555 51.7645 44.2033 50.3474C45.322 49.4895 46.3057 48.451 47.1185 47.2702C48.461 45.3198 49.0622 43.0353 49.3515 40.2159C49.6351 37.4531 49.6351 33.9708 49.6351 29.5284V17.2874C49.6351 10.9617 44.777 5.83365 38.7842 5.83365C36.9686 5.83365 35.216 5.13033 33.859 3.85707L33.3646 3.39315ZM18.9185 6.1051C22.3866 2.85111 27.6128 2.85111 31.0808 6.1051L31.5753 6.56902C33.5615 8.43268 36.1267 9.46212 38.7842 9.46212C42.8785 9.46212 46.1976 12.9656 46.1976 17.2874V29.4187C46.1976 33.9944 46.1952 37.2804 45.934 39.8251C45.6763 42.3358 45.1833 43.9086 44.3375 45.1375C43.7368 46.0103 43.0096 46.7778 42.1828 47.4119C41.0186 48.3047 39.5285 48.8251 37.15 49.0971C34.7393 49.3728 31.6262 49.3753 27.2913 49.3753H22.708C18.3732 49.3753 15.2601 49.3728 12.8494 49.0971C10.4708 48.8251 8.98073 48.3047 7.81656 47.4119C6.98972 46.7778 6.26259 46.0103 5.66185 45.1375C4.81603 43.9086 4.323 42.3358 4.0653 39.8251C3.80412 37.2804 3.80176 33.9944 3.80176 29.4187V17.2874C3.80176 12.9656 7.12084 9.46212 11.2151 9.46212C13.8727 9.46212 16.4378 8.43268 18.4241 6.56902L18.9185 6.1051Z" fill="white"/>
<path d="M36.458 17.3239C36.458 18.6599 37.484 19.7429 38.7497 19.7429C40.0153 19.7429 41.0413 18.6599 41.0413 17.3239C41.0413 15.988 40.0153 14.905 38.7497 14.905C37.484 14.905 36.458 15.988 36.458 17.3239Z" fill="white"/>
</svg>
