<svg width="12" height="13" viewBox="0 0 12 13" fill="none" xmlns="http://www.w3.org/2000/svg">
<path d="M6.56928 4.70296C6.56928 4.28875 6.23349 3.95296 5.81928 3.95296C5.40506 3.95296 5.06928 4.28875 5.06928 4.70296L6.56928 4.70296ZM6.6964 8.48502C7.05512 8.69212 7.51382 8.56921 7.72092 8.21049C7.92802 7.85176 7.80511 7.39307 7.44639 7.18597L6.6964 8.48502ZM1.01341 1.82816C0.68996 2.08691 0.637519 2.55888 0.896276 2.88233C1.15503 3.20577 1.627 3.25822 1.95045 2.99946L1.01341 1.82816ZM3.15527 2.0356C3.47871 1.77685 3.53116 1.30488 3.2724 0.98143C3.01364 0.657983 2.54167 0.605542 2.21823 0.8643L3.15527 2.0356ZM9.68811 2.99946C10.0116 3.25822 10.4835 3.20577 10.7423 2.88233C11.001 2.55888 10.9486 2.08691 10.6251 1.82816L9.68811 2.99946ZM9.42033 0.8643C9.09688 0.605542 8.62491 0.657983 8.36616 0.98143C8.1074 1.30488 8.15984 1.77685 8.48329 2.0356L9.42033 0.8643ZM5.83668 6.22112L6.58015 6.1224L5.83668 6.22112ZM6.60003 7.54327L6.14281 8.13779L6.60003 7.54327ZM5.06928 4.70296V5.66679H6.56928V4.70296L5.06928 4.70296ZM9.88855 6.63067C9.88855 8.87807 8.06668 10.7 5.81928 10.7V12.2C8.8951 12.2 11.3886 9.7065 11.3886 6.63067H9.88855ZM5.81928 10.7C3.57188 10.7 1.75 8.87807 1.75 6.63067H0.25C0.25 9.7065 2.74345 12.2 5.81928 12.2V10.7ZM1.75 6.63067C1.75 4.38327 3.57188 2.5614 5.81928 2.5614V1.0614C2.74345 1.0614 0.25 3.55485 0.25 6.63067H1.75ZM5.81928 2.5614C8.06668 2.5614 9.88855 4.38327 9.88855 6.63067H11.3886C11.3886 3.55485 8.8951 1.0614 5.81928 1.0614V2.5614ZM1.95045 2.99946L3.15527 2.0356L2.21823 0.8643L1.01341 1.82816L1.95045 2.99946ZM10.6251 1.82816L9.42033 0.8643L8.48329 2.0356L9.68811 2.99946L10.6251 1.82816ZM5.06928 5.66679C5.06928 5.92819 5.06773 6.12798 5.0932 6.31983L6.58015 6.1224C6.57083 6.05217 6.56928 5.96977 6.56928 5.66679H5.06928ZM7.44639 7.18597C7.184 7.03448 7.11341 6.99194 7.05725 6.94875L6.14281 8.13779C6.29622 8.25577 6.47002 8.35432 6.6964 8.48502L7.44639 7.18597ZM5.0932 6.31983C5.18892 7.04076 5.56632 7.69443 6.14281 8.13779L7.05725 6.94875C6.79521 6.74722 6.62366 6.4501 6.58015 6.1224L5.0932 6.31983Z" fill="#2D264B"/>
</svg>
