<svg width="24" height="25" viewBox="0 0 24 25" fill="none" xmlns="http://www.w3.org/2000/svg">
<path d="M12.3142 19.9902L11.6158 19.717L12.3142 19.9902ZM3.77909 14.6378L3.04815 14.8058L3.77909 14.6378ZM3.77571 9.72642L3.04477 9.55841L3.77571 9.72642ZM20.2476 9.94741L20.9786 9.7794L20.2476 9.94741ZM20.2476 14.4021L19.5167 14.2341L20.2476 14.4021ZM9.31593 21.3233L9.61076 20.6337L9.61076 20.6337L9.31593 21.3233ZM9.68953 3.77141L9.86413 4.50081H9.86413L9.68953 3.77141ZM14.283 3.77141L14.1084 4.50081L14.283 3.77141ZM9.19777 21.2728L8.90294 21.9624H8.90294L9.19777 21.2728ZM14.6641 3.86264L14.8387 3.13325L14.6641 3.86264ZM20.1588 9.56088L19.4279 9.72889V9.72889L20.1588 9.56088ZM9.46648 3.82481L9.29188 3.09541V3.09541L9.46648 3.82481ZM8.69628 8.80793C8.28207 8.80793 7.94628 9.14372 7.94628 9.55793C7.94628 9.97215 8.28207 10.3079 8.69628 10.3079V8.80793ZM14.7279 10.3079C15.1422 10.3079 15.4779 9.97215 15.4779 9.55793C15.4779 9.14372 15.1422 8.80793 14.7279 8.80793V10.3079ZM8.69628 12.2641C8.28207 12.2641 7.94628 12.5999 7.94628 13.0141C7.94628 13.4283 8.28207 13.7641 8.69628 13.7641V12.2641ZM12.5346 13.7641C12.9488 13.7641 13.2846 13.4283 13.2846 13.0141C13.2846 12.5999 12.9488 12.2641 12.5346 12.2641V13.7641ZM9.64108 4.5542L9.86413 4.50081L9.51493 3.04202L9.29188 3.09541L9.64108 4.5542ZM14.1084 4.50081L14.4895 4.59204L14.8387 3.13325L14.4576 3.04202L14.1084 4.50081ZM9.61076 20.6337L9.4926 20.5832L8.90294 21.9624L9.0211 22.0129L9.61076 20.6337ZM19.4279 9.72889L19.5167 10.1154L20.9786 9.7794L20.8897 9.39287L19.4279 9.72889ZM14.1721 18.6768H13.1107V20.1768H14.1721V18.6768ZM13.1107 18.6768C12.4324 18.6768 11.8529 19.1108 11.6158 19.717L13.0127 20.2634C13.0406 20.1921 13.092 20.1768 13.1107 20.1768V18.6768ZM4.51003 14.4698C4.16535 12.9702 4.16244 11.3919 4.50665 9.89443L3.04477 9.55841C2.64926 11.2791 2.65311 13.0871 3.04815 14.8058L4.51003 14.4698ZM19.5167 10.1154C19.8278 11.4687 19.8278 12.8808 19.5167 14.2341L20.9786 14.5701C21.3405 12.9957 21.3405 11.3538 20.9786 9.7794L19.5167 10.1154ZM9.0211 22.0129C10.6131 22.6936 12.3891 21.8576 13.0127 20.2634L11.6158 19.717C11.2766 20.584 10.365 20.9561 9.61076 20.6337L9.0211 22.0129ZM9.86413 4.50081C11.2611 4.1664 12.7114 4.1664 14.1084 4.50081L14.4576 3.04202C12.8311 2.65266 11.1415 2.65266 9.51493 3.04202L9.86413 4.50081ZM9.4926 20.5832C7.01453 19.5237 5.14644 17.2384 4.51003 14.4698L3.04815 14.8058C3.78571 18.0145 5.95924 20.7039 8.90294 21.9624L9.4926 20.5832ZM19.5167 14.2341C18.912 16.8647 16.6859 18.6768 14.1721 18.6768V20.1768C17.4318 20.1768 20.2281 17.8351 20.9786 14.5701L19.5167 14.2341ZM14.4895 4.59204C16.91 5.17142 18.8349 7.14932 19.4279 9.72889L20.8897 9.39287C20.1765 6.28984 17.8441 3.85266 14.8387 3.13325L14.4895 4.59204ZM9.29188 3.09541C6.18969 3.838 3.78134 6.35397 3.04477 9.55841L4.50665 9.89443C5.1229 7.21346 7.12384 5.15676 9.64108 4.5542L9.29188 3.09541ZM8.69628 10.3079H14.7279V8.80793H8.69628V10.3079ZM8.69628 13.7641H12.5346V12.2641H8.69628V13.7641Z" fill="#363853"/>
</svg>
