<svg width="926" height="1058" viewBox="0 0 926 1058" fill="none" xmlns="http://www.w3.org/2000/svg">
<rect width="926" height="1058" rx="55" fill="white"/>
<path d="M522.691 253.193C482.596 252.097 418.542 283.584 384.806 325.638C333.095 390.092 283.381 358.5 235.274 402.151C198.888 435.176 187.477 506.489 241.595 543.475C295.714 580.462 389.21 540.773 444.471 563.183C499.733 585.593 549.22 603.984 605.43 595.518C669.968 585.82 726.931 527.529 716.406 423.36C702.946 290.095 608.269 255.527 522.691 253.193Z" fill="#E1ECFF"/>
<path d="M676.716 446.755C676.716 446.755 710.373 461.611 712.349 490.479C714.103 516.124 700.606 542.448 676.716 554.749C649.422 568.772 637.569 545.44 646.209 530.69C654.848 515.94 702.903 493.287 670.236 464.282C670.236 451.886 676.716 446.755 676.716 446.755Z" fill="#F774B9"/>
<path opacity="0.58" d="M334.433 443.299C322.501 442.045 300.517 442.567 288.654 445.649C277.844 448.456 267.582 460.926 283.912 466.721C300.243 472.515 286.657 479.622 264.948 480.66C243.238 481.698 233.503 496.011 248.78 503.95C264.057 511.888 295.202 512.378 321.01 512.378C346.818 512.378 380.19 508.369 394.282 499.92C408.374 491.47 397.543 483.452 392.649 481.229C387.755 479.006 383.009 478.484 384.342 475.002C385.674 471.52 391.717 461.374 382.809 453.54C367.716 440.296 347.218 444.648 334.433 443.299Z" fill="#99ADF9"/>
<path d="M450.899 427.964C450.899 427.964 449.877 450.3 448.033 452.961C446.189 455.621 429.595 460.236 428.679 465.461C427.762 470.687 427.862 479.806 436.259 481.445C444.656 483.083 462.599 482.677 467.198 482.498C471.797 482.319 481.332 469.381 485.531 439.875C460.534 428.459 450.899 427.964 450.899 427.964Z" fill="#F774B9"/>
<path d="M494.491 148.449C494.491 148.449 481.937 124.554 473.166 119.022C464.395 113.491 458.584 116.188 456.429 121.993C454.275 127.799 453.727 151.146 453.727 151.146C453.727 151.146 429.431 173.688 420.254 198.659C411.077 223.629 409.049 274.249 466.955 280.987C524.861 287.725 584.526 268.581 610.044 251.302C601.668 209.052 589.789 153.981 587.086 138.751C584.384 123.521 576.024 115.967 566.841 116.019C557.659 116.072 546.301 137.381 542.814 150.34C518.655 147.501 494.491 148.449 494.491 148.449Z" fill="#FF97C9"/>
<path opacity="0.3" d="M549.268 151.642C549.268 151.642 557.259 125.86 564.213 125.997C570.44 126.118 573.321 145.489 573.843 155.029C573.861 155.368 573.801 155.707 573.667 156.019C573.533 156.331 573.329 156.607 573.07 156.828C572.812 157.048 572.506 157.205 572.177 157.288C571.848 157.371 571.504 157.377 571.172 157.305C562.68 155.493 549.268 151.642 549.268 151.642Z" fill="white"/>
<path opacity="0.3" d="M453.585 151.236C453.585 151.236 452.931 124.048 458.716 122.015C464.59 119.944 473.993 137.139 477.796 145.921C477.93 146.233 477.99 146.572 477.971 146.911C477.953 147.25 477.857 147.58 477.69 147.876C477.524 148.172 477.291 148.426 477.011 148.618C476.731 148.809 476.41 148.934 476.074 148.982C467.487 150.214 453.585 151.236 453.585 151.236Z" fill="white"/>
<path d="M610.045 251.302C614.164 267.906 638.661 312.042 653.643 336.343C668.625 360.644 681.858 391.13 681.036 429.655C680.215 468.18 665.686 478.7 645.551 484.548C625.417 490.395 613.006 488.762 601.3 490.311C589.595 491.86 577.367 496.88 569.444 490.311C561.521 483.742 557.386 479.87 548.567 484.458C539.749 489.047 517.344 487.788 511.496 486.26C505.649 484.732 502.767 473.032 512.55 467C496.53 472.131 455.656 467.432 445.868 427.859C438.039 396.135 461.672 330.548 466.94 315.556C472.329 300.173 474.768 291.66 471.797 277.758C491.388 272.226 610.045 251.302 610.045 251.302Z" fill="#FF97C9"/>
<path d="M626.77 289.058C626.77 289.058 605.645 312.068 610.044 335.532C613.099 351.894 633.26 360.908 635.42 374.947C637.58 388.986 652.973 412.35 678.886 400.276C675.636 360.097 626.77 289.058 626.77 289.058Z" fill="#F774B9"/>
<g style="mix-blend-mode:multiply" opacity="0.19">
<path d="M662.14 349.334C662.14 349.334 679.44 454.831 614.096 489.405C659.58 516.983 721.531 433.564 721.531 433.564L662.14 349.334Z" fill="#FF97C9"/>
</g>
<path d="M566.215 440.908C566.215 440.908 567.268 463.492 586.908 467.184C584.389 472.31 566.483 468.891 565.672 486.797C562.343 484.764 558.202 479.87 548.572 484.458C561.621 462.501 566.215 440.908 566.215 440.908Z" fill="#F774B9"/>
<path opacity="0.3" d="M465.701 302.022C465.701 302.022 472.423 296.048 492.041 298.861C511.659 301.675 536.603 358.121 533.411 391.847C530.218 425.573 534.401 464.514 503.199 471.842C472.086 483.921 405.119 437.974 405.119 437.974L465.701 302.022Z" fill="white"/>
<path d="M532.71 355.218C532.742 374.768 530.967 394.243 529.065 413.693C528.122 423.365 527.263 433.069 525.535 442.667C524.26 449.715 522.717 462.353 513.635 463.523C510.653 463.907 510.611 468.654 513.635 468.264C522.738 467.089 526.805 458.892 528.701 450.801C531.077 440.665 532.173 430.255 533.2 419.904C535.307 398.416 537.483 376.88 537.452 355.255C537.452 352.205 532.71 352.199 532.71 355.255V355.218Z" fill="#F774B9"/>
<path d="M573.02 393.195C571.54 408.615 568.237 423.786 564.012 438.674C561.905 446.002 559.624 453.266 557.195 460.483C555.983 464.09 554.744 467.69 553.476 471.283C552.248 474.77 551.063 478.331 548.524 481.113C546.469 483.362 549.815 486.723 551.874 484.463C556.869 478.995 558.644 470.94 560.972 464.097C563.606 456.416 566.072 448.688 568.311 440.886C572.788 425.277 576.213 409.373 577.761 393.195C578.056 390.161 573.31 390.182 573.02 393.195Z" fill="#F774B9"/>
<path d="M597.122 389.824C589.747 393.364 582.772 399.511 577.346 405.58C571.92 411.649 568.754 419.119 566.974 426.973C565.193 434.828 563.518 443.994 566.589 451.733C569.181 458.26 574.433 463.502 580.597 466.752C589.062 471.219 598.834 472.052 608.248 471.909C611.293 471.867 611.304 467.126 608.248 467.168C598.808 467.311 588.815 466.536 580.655 461.3C572.932 456.343 569.107 448.657 569.803 439.527C570.498 430.398 572.605 420.562 577.705 412.808C580.339 408.788 583.937 405.548 587.529 402.403C591.243 399.148 595.031 396.082 599.504 393.922C602.253 392.6 599.851 388.512 597.112 389.829L597.122 389.824Z" fill="#F774B9"/>
<path d="M589.288 466.199C583.172 468.57 576.803 470.635 570.85 473.395C568.609 474.406 566.737 476.089 565.494 478.211C564.251 480.332 563.698 482.788 563.912 485.238C564.181 488.251 568.922 488.277 568.653 485.238C568.179 479.927 571.856 478.015 576.166 476.345L590.553 470.772C593.371 469.681 592.133 465.093 589.293 466.199H589.288Z" fill="#F774B9"/>
<path d="M513.64 475.26C512.268 478.181 511.687 481.411 511.954 484.627C512.233 487.64 516.974 487.672 516.695 484.627C516.429 482.25 516.793 479.844 517.749 477.652C518.276 476.477 518.081 475.118 516.901 474.412C515.889 473.806 514.182 474.096 513.656 475.26H513.64Z" fill="#F774B9"/>
<path d="M529.37 475.545C527.742 478.669 527.616 482.046 527.721 485.496C527.81 488.541 532.552 488.552 532.462 485.496C532.383 482.946 532.251 480.27 533.463 477.942C534.87 475.234 530.782 472.837 529.37 475.545Z" fill="#F774B9"/>
<path d="M472.629 282.383C472.629 282.383 546.054 288.557 610.034 251.302C613.5 261.311 618.226 271.952 618.226 271.952C618.226 271.952 554.578 310.583 471.696 300.273C468.72 295.363 472.629 282.383 472.629 282.383Z" fill="#738DE0"/>
<path d="M441.042 202.078C442.907 200.445 458.721 200.055 460.386 201.093C462.051 202.13 460.207 213.33 450.714 213.33C441.221 213.33 439.598 203.342 441.042 202.078Z" fill="#1C3177"/>
<path d="M509.067 202.078C510.937 200.445 526.751 200.055 528.416 201.093C530.081 202.13 528.237 213.33 518.744 213.33C509.251 213.33 507.628 203.342 509.067 202.078Z" fill="#1C3177"/>
<path d="M475.146 247.798C475.146 247.798 480.093 235.292 483.048 235.561C486.004 235.83 492.784 247.798 492.784 247.798" stroke="#1C3177" stroke-width="9" stroke-miterlimit="10" stroke-linecap="round"/>
<path d="M407.295 226.679C413.593 226.437 419.9 226.542 426.186 226.995C429.231 227.216 429.221 222.475 426.186 222.254C419.9 221.801 413.593 221.695 407.295 221.938C404.256 222.054 404.24 226.795 407.295 226.679Z" fill="#F774B9"/>
<path d="M409.408 250.085C414.651 247.735 420.014 245.666 425.476 243.884C428.363 242.941 427.13 238.363 424.217 239.317C418.37 241.236 412.629 243.462 407.017 245.986C404.24 247.235 406.648 251.323 409.408 250.085Z" fill="#F774B9"/>
<path d="M538.822 227.606C544.028 224.462 549.476 221.738 555.116 219.462C557.913 218.34 556.696 213.757 553.857 214.889C547.827 217.295 542 220.179 536.43 223.513C533.796 225.094 536.199 229.182 538.822 227.606Z" fill="#F774B9"/>
<path d="M540.65 240.861C546.044 241.182 551.417 241.725 556.764 242.52C559.746 242.963 561.037 238.395 558.024 237.947C552.229 237.089 546.466 236.467 540.639 236.119C537.589 235.935 537.6 240.676 540.639 240.861H540.65Z" fill="#F774B9"/>
<path d="M480.115 149.592C484.476 149.119 488.866 148.976 493.249 149.166C496.299 149.297 496.294 144.556 493.249 144.425C488.866 144.235 484.476 144.377 480.115 144.851C477.118 145.178 477.081 149.924 480.115 149.592Z" fill="#F774B9"/>
<path d="M544.836 151.478C547.993 151.533 551.11 152.178 554.029 153.38C556.858 154.518 558.085 149.935 555.288 148.807C551.963 147.475 548.419 146.773 544.836 146.737C541.786 146.69 541.786 151.431 544.836 151.478Z" fill="#F774B9"/>
<path d="M475.147 326.081C483.246 326.081 489.813 319.934 489.813 312.352C489.813 304.77 483.246 298.624 475.147 298.624C467.047 298.624 460.48 304.77 460.48 312.352C460.48 319.934 467.047 326.081 475.147 326.081Z" fill="#FFD3B3"/>
<path d="M480.182 312.012C480.457 309.974 477.714 307.921 474.055 307.427C470.396 306.933 467.207 308.185 466.932 310.223C466.657 312.262 469.4 314.315 473.059 314.809C476.717 315.303 479.907 314.051 480.182 312.012Z" fill="#1C3177"/>
<path d="M473.566 311.594C471.653 316.61 471.065 322.035 471.86 327.345" stroke="#1C3177" stroke-width="7" stroke-miterlimit="10"/>
<path d="M277.633 493.277L311.453 531.507L329.823 523.552L316.537 516.925L320.72 498.234L277.633 493.277Z" fill="#738DE0"/>
<path d="M346.797 498.65L361.826 484.806L369.934 500.03L346.797 498.65Z" fill="#738DE0"/>
<path d="M303.727 414.415L399.794 424.903C399.794 424.903 410.377 449.826 398.956 467.627L325.731 472.189L331.273 456.564L319.014 452.413L328.655 430.972L303.727 414.415Z" fill="#738DE0"/>
<path d="M263.391 761.799V782.963C263.391 785.166 264.008 786.916 265.242 788.213C266.492 789.494 268.242 790.135 270.492 790.135C272.727 790.135 274.461 789.494 275.695 788.213C276.945 786.916 277.57 785.166 277.57 782.963V761.799H284.648V783.666C284.648 787.416 283.359 790.447 280.781 792.76C278.219 795.057 274.789 796.205 270.492 796.205C266.18 796.205 262.734 795.057 260.156 792.76C257.594 790.447 256.312 787.416 256.312 783.666V761.799H263.391ZM301.312 790.275C303.031 790.275 304.391 789.635 305.391 788.354C306.406 787.057 306.914 785.275 306.914 783.01C306.914 780.744 306.406 778.939 305.391 777.596C304.375 776.252 303.016 775.58 301.312 775.58C299.625 775.58 298.281 776.252 297.281 777.596C296.297 778.924 295.805 780.729 295.805 783.01C295.805 785.291 296.297 787.072 297.281 788.354C298.266 789.635 299.609 790.275 301.312 790.275ZM301.195 805.088C297.93 805.088 295.242 804.369 293.133 802.932C291.039 801.51 289.852 799.666 289.57 797.4H296.273C296.539 798.275 297.133 798.979 298.055 799.51C298.992 800.057 300.102 800.33 301.383 800.33C303.117 800.33 304.469 799.885 305.438 798.994C306.406 798.119 306.891 796.939 306.891 795.455V791.049H306.75C306.156 792.408 305.164 793.502 303.773 794.33C302.383 795.143 300.789 795.549 298.992 795.549C295.898 795.549 293.422 794.424 291.562 792.174C289.719 789.924 288.797 786.854 288.797 782.963C288.797 778.979 289.719 775.838 291.562 773.541C293.406 771.244 295.922 770.096 299.109 770.096C300.891 770.096 302.461 770.525 303.82 771.385C305.18 772.244 306.195 773.408 306.867 774.877H306.984V770.494H313.734V795.268C313.734 798.252 312.586 800.635 310.289 802.416C308.008 804.197 304.977 805.088 301.195 805.088ZM318.375 795.619V761.799H325.102V774.971H325.242C325.914 773.377 326.922 772.158 328.266 771.314C329.625 770.455 331.25 770.025 333.141 770.025C335.906 770.025 338.055 770.869 339.586 772.557C341.133 774.229 341.906 776.525 341.906 779.447V795.619H335.062V780.9C335.062 779.26 334.656 777.986 333.844 777.08C333.047 776.158 331.883 775.697 330.352 775.697C328.758 775.697 327.5 776.213 326.578 777.244C325.672 778.26 325.219 779.604 325.219 781.275V795.619H318.375ZM363.469 795.619H356.391V761.799H363.469V795.619ZM376.523 785.658H383.391C383.422 787.033 383.844 788.135 384.656 788.963C385.484 789.791 386.562 790.205 387.891 790.205C389.375 790.205 390.5 789.76 391.266 788.869C392.047 787.979 392.438 786.682 392.438 784.979V761.799H399.516V785.025C399.516 788.604 398.5 791.385 396.469 793.369C394.438 795.338 391.602 796.322 387.961 796.322C384.508 796.322 381.734 795.354 379.641 793.416C377.562 791.479 376.523 788.893 376.523 785.658ZM428.039 770.494V795.619H421.43V791.096H421.289C419.977 794.424 417.469 796.088 413.766 796.088C411.016 796.088 408.82 795.252 407.18 793.58C405.539 791.893 404.719 789.596 404.719 786.689V770.494H411.562V785.26C411.562 786.932 411.961 788.205 412.758 789.08C413.57 789.955 414.734 790.393 416.25 790.393C417.766 790.393 418.969 789.893 419.859 788.893C420.75 787.893 421.195 786.557 421.195 784.885V770.494H428.039ZM432.07 777.877C432.07 775.486 433.031 773.572 434.953 772.135C436.875 770.682 439.445 769.955 442.664 769.955C445.805 769.955 448.328 770.689 450.234 772.158C452.141 773.627 453.117 775.58 453.164 778.018H446.859C446.781 777.002 446.359 776.205 445.594 775.627C444.844 775.049 443.836 774.76 442.57 774.76C441.383 774.76 440.43 775.01 439.711 775.51C439.008 775.994 438.656 776.643 438.656 777.455C438.656 778.674 439.75 779.541 441.938 780.057L446.742 781.088C449.258 781.65 451.062 782.471 452.156 783.549C453.266 784.611 453.82 786.08 453.82 787.955C453.82 790.424 452.789 792.408 450.727 793.908C448.664 795.408 445.969 796.158 442.641 796.158C439.328 796.158 436.68 795.424 434.695 793.955C432.711 792.486 431.625 790.51 431.438 788.025H438.117C438.289 789.088 438.773 789.908 439.57 790.486C440.383 791.064 441.469 791.354 442.828 791.354C444.125 791.354 445.141 791.119 445.875 790.65C446.625 790.166 447 789.51 447 788.682C447 788.041 446.766 787.533 446.297 787.158C445.828 786.768 445.031 786.439 443.906 786.174L439.266 785.143C434.469 784.049 432.07 781.627 432.07 777.877ZM459.07 764.705H465.914V770.494H470.555V775.65H465.914V787.674C465.914 789.564 466.898 790.51 468.867 790.51C469.508 790.51 470.062 790.471 470.531 790.393V795.432C469.734 795.619 468.648 795.713 467.273 795.713C464.32 795.713 462.211 795.182 460.945 794.119C459.695 793.057 459.07 791.299 459.07 788.846V775.65H455.531V770.494H459.07V764.705ZM499.383 795.619H484.406V761.799H499.125C502.297 761.799 504.812 762.557 506.672 764.072C508.531 765.588 509.461 767.643 509.461 770.236C509.461 772.08 508.852 773.697 507.633 775.088C506.43 776.479 504.922 777.307 503.109 777.572V777.76C505.422 777.932 507.328 778.783 508.828 780.314C510.328 781.846 511.078 783.721 511.078 785.939C511.078 788.924 510.031 791.283 507.938 793.018C505.844 794.752 502.992 795.619 499.383 795.619ZM491.484 767.072V775.861H496.57C498.461 775.861 499.922 775.471 500.953 774.689C501.984 773.893 502.5 772.775 502.5 771.338C502.5 769.979 502.047 768.932 501.141 768.197C500.234 767.447 498.953 767.072 497.297 767.072H491.484ZM491.484 790.346H497.578C499.625 790.346 501.18 789.924 502.242 789.08C503.32 788.221 503.859 786.986 503.859 785.377C503.859 783.799 503.305 782.596 502.195 781.768C501.102 780.939 499.508 780.525 497.414 780.525H491.484V790.346ZM514.523 795.619V770.494H521.133V775.018H521.273C521.711 773.424 522.445 772.205 523.477 771.361C524.508 770.518 525.766 770.096 527.25 770.096C527.969 770.096 528.617 770.182 529.195 770.354V776.377C528.555 776.111 527.727 775.979 526.711 775.979C525.023 775.979 523.711 776.471 522.773 777.455C521.836 778.439 521.367 779.814 521.367 781.58V795.619H514.523ZM542.438 775.018C540.953 775.018 539.711 775.525 538.711 776.541C537.727 777.557 537.172 778.854 537.047 780.432H547.711C547.633 778.822 547.109 777.518 546.141 776.518C545.188 775.518 543.953 775.018 542.438 775.018ZM547.805 787.932H554.086C553.711 790.4 552.477 792.393 550.383 793.908C548.305 795.408 545.719 796.158 542.625 796.158C538.766 796.158 535.734 795.002 533.531 792.689C531.344 790.377 530.25 787.205 530.25 783.174C530.25 779.158 531.344 775.955 533.531 773.564C535.719 771.158 538.664 769.955 542.367 769.955C546.008 769.955 548.906 771.096 551.062 773.377C553.219 775.658 554.297 778.713 554.297 782.541V784.627H536.977V785.049C536.977 786.846 537.5 788.307 538.547 789.432C539.609 790.541 541.008 791.096 542.742 791.096C543.992 791.096 545.07 790.814 545.977 790.252C546.883 789.674 547.492 788.9 547.805 787.932ZM567.539 791.072C569.055 791.072 570.336 790.635 571.383 789.76C572.445 788.869 572.977 787.752 572.977 786.408V784.58L567.68 784.908C566.398 785.002 565.406 785.322 564.703 785.869C564.016 786.416 563.672 787.135 563.672 788.025C563.672 788.963 564.023 789.705 564.727 790.252C565.43 790.799 566.367 791.072 567.539 791.072ZM565.289 796.018C562.867 796.018 560.859 795.307 559.266 793.885C557.672 792.463 556.875 790.635 556.875 788.4C556.875 786.119 557.719 784.33 559.406 783.033C561.094 781.736 563.508 780.994 566.648 780.807L572.977 780.432V778.768C572.977 777.611 572.594 776.705 571.828 776.049C571.078 775.393 570.055 775.064 568.758 775.064C567.508 775.064 566.484 775.346 565.688 775.908C564.906 776.471 564.43 777.229 564.258 778.182H558C558.125 775.713 559.18 773.729 561.164 772.229C563.148 770.713 565.781 769.955 569.062 769.955C572.281 769.955 574.859 770.721 576.797 772.252C578.734 773.783 579.703 775.814 579.703 778.346V795.619H573.094V791.775H572.953C572.266 793.088 571.219 794.127 569.812 794.893C568.406 795.643 566.898 796.018 565.289 796.018ZM591.234 780.572L599.766 770.494H607.523L597.938 781.275L607.992 795.619H600.117L592.922 785.4L591.141 787.322V795.619H584.297V761.799H591.141V780.572H591.234ZM627.141 795.619H620.062V761.799H627.141V795.619ZM634.008 764.705H640.852V770.494H645.492V775.65H640.852V787.674C640.852 789.564 641.836 790.51 643.805 790.51C644.445 790.51 645 790.471 645.469 790.393V795.432C644.672 795.619 643.586 795.713 642.211 795.713C639.258 795.713 637.148 795.182 635.883 794.119C634.633 793.057 634.008 791.299 634.008 788.846V775.65H630.469V770.494H634.008V764.705ZM660.609 761.799H667.641L667.078 784.486H661.172L660.609 761.799ZM666.82 795.15C666.086 795.854 665.188 796.205 664.125 796.205C663.062 796.205 662.156 795.854 661.406 795.15C660.672 794.432 660.305 793.557 660.305 792.525C660.305 791.494 660.672 790.627 661.406 789.924C662.156 789.205 663.062 788.846 664.125 788.846C665.188 788.846 666.086 789.205 666.82 789.924C667.57 790.627 667.945 791.494 667.945 792.525C667.945 793.557 667.57 794.432 666.82 795.15Z" fill="#1C3177"/>
<path d="M165.988 862.619H164.02V849.588H163.938L158.547 862.502H156.766L151.375 849.588H151.293V862.619H149.324V845.709H151.773L157.609 859.818H157.703L163.539 845.709H165.988V862.619ZM173.84 851.99C172.895 851.99 172.109 852.318 171.484 852.975C170.867 853.623 170.527 854.459 170.465 855.482H177.086C177.062 854.451 176.754 853.611 176.16 852.963C175.566 852.314 174.793 851.99 173.84 851.99ZM177.039 859.127H179.043C178.863 860.205 178.301 861.092 177.355 861.787C176.418 862.482 175.289 862.83 173.969 862.83C172.227 862.83 170.855 862.268 169.855 861.143C168.855 860.018 168.355 858.494 168.355 856.572C168.355 854.666 168.855 853.131 169.855 851.967C170.863 850.803 172.203 850.221 173.875 850.221C175.516 850.221 176.812 850.771 177.766 851.873C178.719 852.975 179.195 854.451 179.195 856.303V857.076H170.453V857.193C170.453 858.365 170.773 859.303 171.414 860.006C172.055 860.709 172.922 861.061 174.016 861.061C174.781 861.061 175.434 860.885 175.973 860.533C176.512 860.182 176.867 859.713 177.039 859.127ZM186.309 862.83C184.605 862.83 183.238 862.264 182.207 861.131C181.176 859.99 180.66 858.455 180.66 856.525C180.66 854.596 181.176 853.064 182.207 851.932C183.238 850.791 184.605 850.221 186.309 850.221C188.004 850.221 189.367 850.791 190.398 851.932C191.43 853.064 191.945 854.596 191.945 856.525C191.945 858.447 191.43 859.979 190.398 861.119C189.367 862.26 188.004 862.83 186.309 862.83ZM183.695 859.842C184.344 860.639 185.215 861.037 186.309 861.037C187.402 861.037 188.27 860.643 188.91 859.854C189.551 859.057 189.871 857.947 189.871 856.525C189.871 855.104 189.551 853.998 188.91 853.209C188.27 852.412 187.402 852.014 186.309 852.014C185.215 852.014 184.344 852.412 183.695 853.209C183.055 854.006 182.734 855.111 182.734 856.525C182.734 857.939 183.055 859.045 183.695 859.842ZM209.512 850.432L206.113 862.619H204.039L201.285 853.186H201.238L198.496 862.619H196.422L193.012 850.432H195.039L197.477 860.346H197.523L200.277 850.432H202.246L205.012 860.346H205.059L207.496 850.432H209.512ZM211.176 865.982H209.477L210.613 860.018H212.781L211.176 865.982ZM236.605 862.619H234.637V849.588H234.555L229.164 862.502H227.383L221.992 849.588H221.91V862.619H219.941V845.709H222.391L228.227 859.818H228.32L234.156 845.709H236.605V862.619ZM244.457 851.99C243.512 851.99 242.727 852.318 242.102 852.975C241.484 853.623 241.145 854.459 241.082 855.482H247.703C247.68 854.451 247.371 853.611 246.777 852.963C246.184 852.314 245.41 851.99 244.457 851.99ZM247.656 859.127H249.66C249.48 860.205 248.918 861.092 247.973 861.787C247.035 862.482 245.906 862.83 244.586 862.83C242.844 862.83 241.473 862.268 240.473 861.143C239.473 860.018 238.973 858.494 238.973 856.572C238.973 854.666 239.473 853.131 240.473 851.967C241.48 850.803 242.82 850.221 244.492 850.221C246.133 850.221 247.43 850.771 248.383 851.873C249.336 852.975 249.812 854.451 249.812 856.303V857.076H241.07V857.193C241.07 858.365 241.391 859.303 242.031 860.006C242.672 860.709 243.539 861.061 244.633 861.061C245.398 861.061 246.051 860.885 246.59 860.533C247.129 860.182 247.484 859.713 247.656 859.127ZM256.926 862.83C255.223 862.83 253.855 862.264 252.824 861.131C251.793 859.99 251.277 858.455 251.277 856.525C251.277 854.596 251.793 853.064 252.824 851.932C253.855 850.791 255.223 850.221 256.926 850.221C258.621 850.221 259.984 850.791 261.016 851.932C262.047 853.064 262.562 854.596 262.562 856.525C262.562 858.447 262.047 859.979 261.016 861.119C259.984 862.26 258.621 862.83 256.926 862.83ZM254.312 859.842C254.961 860.639 255.832 861.037 256.926 861.037C258.02 861.037 258.887 860.643 259.527 859.854C260.168 859.057 260.488 857.947 260.488 856.525C260.488 855.104 260.168 853.998 259.527 853.209C258.887 852.412 258.02 852.014 256.926 852.014C255.832 852.014 254.961 852.412 254.312 853.209C253.672 854.006 253.352 855.111 253.352 856.525C253.352 857.939 253.672 859.045 254.312 859.842ZM280.129 850.432L276.73 862.619H274.656L271.902 853.186H271.855L269.113 862.619H267.039L263.629 850.432H265.656L268.094 860.346H268.141L270.895 850.432H272.863L275.629 860.346H275.676L278.113 850.432H280.129ZM281.793 865.982H280.094L281.23 860.018H283.398L281.793 865.982ZM307.223 862.619H305.254V849.588H305.172L299.781 862.502H298L292.609 849.588H292.527V862.619H290.559V845.709H293.008L298.844 859.818H298.938L304.773 845.709H307.223V862.619ZM315.074 851.99C314.129 851.99 313.344 852.318 312.719 852.975C312.102 853.623 311.762 854.459 311.699 855.482H318.32C318.297 854.451 317.988 853.611 317.395 852.963C316.801 852.314 316.027 851.99 315.074 851.99ZM318.273 859.127H320.277C320.098 860.205 319.535 861.092 318.59 861.787C317.652 862.482 316.523 862.83 315.203 862.83C313.461 862.83 312.09 862.268 311.09 861.143C310.09 860.018 309.59 858.494 309.59 856.572C309.59 854.666 310.09 853.131 311.09 851.967C312.098 850.803 313.438 850.221 315.109 850.221C316.75 850.221 318.047 850.771 319 851.873C319.953 852.975 320.43 854.451 320.43 856.303V857.076H311.688V857.193C311.688 858.365 312.008 859.303 312.648 860.006C313.289 860.709 314.156 861.061 315.25 861.061C316.016 861.061 316.668 860.885 317.207 860.533C317.746 860.182 318.102 859.713 318.273 859.127ZM327.543 862.83C325.84 862.83 324.473 862.264 323.441 861.131C322.41 859.99 321.895 858.455 321.895 856.525C321.895 854.596 322.41 853.064 323.441 851.932C324.473 850.791 325.84 850.221 327.543 850.221C329.238 850.221 330.602 850.791 331.633 851.932C332.664 853.064 333.18 854.596 333.18 856.525C333.18 858.447 332.664 859.979 331.633 861.119C330.602 862.26 329.238 862.83 327.543 862.83ZM324.93 859.842C325.578 860.639 326.449 861.037 327.543 861.037C328.637 861.037 329.504 860.643 330.145 859.854C330.785 859.057 331.105 857.947 331.105 856.525C331.105 855.104 330.785 853.998 330.145 853.209C329.504 852.412 328.637 852.014 327.543 852.014C326.449 852.014 325.578 852.412 324.93 853.209C324.289 854.006 323.969 855.111 323.969 856.525C323.969 857.939 324.289 859.045 324.93 859.842ZM350.746 850.432L347.348 862.619H345.273L342.52 853.186H342.473L339.73 862.619H337.656L334.246 850.432H336.273L338.711 860.346H338.758L341.512 850.432H343.48L346.246 860.346H346.293L348.73 850.432H350.746ZM352.41 865.982H350.711L351.848 860.018H354.016L352.41 865.982ZM377.84 862.619H375.871V849.588H375.789L370.398 862.502H368.617L363.227 849.588H363.145V862.619H361.176V845.709H363.625L369.461 859.818H369.555L375.391 845.709H377.84V862.619ZM385.691 851.99C384.746 851.99 383.961 852.318 383.336 852.975C382.719 853.623 382.379 854.459 382.316 855.482H388.938C388.914 854.451 388.605 853.611 388.012 852.963C387.418 852.314 386.645 851.99 385.691 851.99ZM388.891 859.127H390.895C390.715 860.205 390.152 861.092 389.207 861.787C388.27 862.482 387.141 862.83 385.82 862.83C384.078 862.83 382.707 862.268 381.707 861.143C380.707 860.018 380.207 858.494 380.207 856.572C380.207 854.666 380.707 853.131 381.707 851.967C382.715 850.803 384.055 850.221 385.727 850.221C387.367 850.221 388.664 850.771 389.617 851.873C390.57 852.975 391.047 854.451 391.047 856.303V857.076H382.305V857.193C382.305 858.365 382.625 859.303 383.266 860.006C383.906 860.709 384.773 861.061 385.867 861.061C386.633 861.061 387.285 860.885 387.824 860.533C388.363 860.182 388.719 859.713 388.891 859.127ZM398.16 862.83C396.457 862.83 395.09 862.264 394.059 861.131C393.027 859.99 392.512 858.455 392.512 856.525C392.512 854.596 393.027 853.064 394.059 851.932C395.09 850.791 396.457 850.221 398.16 850.221C399.855 850.221 401.219 850.791 402.25 851.932C403.281 853.064 403.797 854.596 403.797 856.525C403.797 858.447 403.281 859.979 402.25 861.119C401.219 862.26 399.855 862.83 398.16 862.83ZM395.547 859.842C396.195 860.639 397.066 861.037 398.16 861.037C399.254 861.037 400.121 860.643 400.762 859.854C401.402 859.057 401.723 857.947 401.723 856.525C401.723 855.104 401.402 853.998 400.762 853.209C400.121 852.412 399.254 852.014 398.16 852.014C397.066 852.014 396.195 852.412 395.547 853.209C394.906 854.006 394.586 855.111 394.586 856.525C394.586 857.939 394.906 859.045 395.547 859.842ZM421.363 850.432L417.965 862.619H415.891L413.137 853.186H413.09L410.348 862.619H408.273L404.863 850.432H406.891L409.328 860.346H409.375L412.129 850.432H414.098L416.863 860.346H416.91L419.348 850.432H421.363ZM423.027 865.982H421.328L422.465 860.018H424.633L423.027 865.982ZM448.457 862.619H446.488V849.588H446.406L441.016 862.502H439.234L433.844 849.588H433.762V862.619H431.793V845.709H434.242L440.078 859.818H440.172L446.008 845.709H448.457V862.619ZM456.309 851.99C455.363 851.99 454.578 852.318 453.953 852.975C453.336 853.623 452.996 854.459 452.934 855.482H459.555C459.531 854.451 459.223 853.611 458.629 852.963C458.035 852.314 457.262 851.99 456.309 851.99ZM459.508 859.127H461.512C461.332 860.205 460.77 861.092 459.824 861.787C458.887 862.482 457.758 862.83 456.438 862.83C454.695 862.83 453.324 862.268 452.324 861.143C451.324 860.018 450.824 858.494 450.824 856.572C450.824 854.666 451.324 853.131 452.324 851.967C453.332 850.803 454.672 850.221 456.344 850.221C457.984 850.221 459.281 850.771 460.234 851.873C461.188 852.975 461.664 854.451 461.664 856.303V857.076H452.922V857.193C452.922 858.365 453.242 859.303 453.883 860.006C454.523 860.709 455.391 861.061 456.484 861.061C457.25 861.061 457.902 860.885 458.441 860.533C458.98 860.182 459.336 859.713 459.508 859.127ZM468.777 862.83C467.074 862.83 465.707 862.264 464.676 861.131C463.645 859.99 463.129 858.455 463.129 856.525C463.129 854.596 463.645 853.064 464.676 851.932C465.707 850.791 467.074 850.221 468.777 850.221C470.473 850.221 471.836 850.791 472.867 851.932C473.898 853.064 474.414 854.596 474.414 856.525C474.414 858.447 473.898 859.979 472.867 861.119C471.836 862.26 470.473 862.83 468.777 862.83ZM466.164 859.842C466.812 860.639 467.684 861.037 468.777 861.037C469.871 861.037 470.738 860.643 471.379 859.854C472.02 859.057 472.34 857.947 472.34 856.525C472.34 855.104 472.02 853.998 471.379 853.209C470.738 852.412 469.871 852.014 468.777 852.014C467.684 852.014 466.812 852.412 466.164 853.209C465.523 854.006 465.203 855.111 465.203 856.525C465.203 857.939 465.523 859.045 466.164 859.842ZM491.98 850.432L488.582 862.619H486.508L483.754 853.186H483.707L480.965 862.619H478.891L475.48 850.432H477.508L479.945 860.346H479.992L482.746 850.432H484.715L487.48 860.346H487.527L489.965 850.432H491.98ZM493.645 865.982H491.945L493.082 860.018H495.25L493.645 865.982ZM519.074 862.619H517.105V849.588H517.023L511.633 862.502H509.852L504.461 849.588H504.379V862.619H502.41V845.709H504.859L510.695 859.818H510.789L516.625 845.709H519.074V862.619ZM526.926 851.99C525.98 851.99 525.195 852.318 524.57 852.975C523.953 853.623 523.613 854.459 523.551 855.482H530.172C530.148 854.451 529.84 853.611 529.246 852.963C528.652 852.314 527.879 851.99 526.926 851.99ZM530.125 859.127H532.129C531.949 860.205 531.387 861.092 530.441 861.787C529.504 862.482 528.375 862.83 527.055 862.83C525.312 862.83 523.941 862.268 522.941 861.143C521.941 860.018 521.441 858.494 521.441 856.572C521.441 854.666 521.941 853.131 522.941 851.967C523.949 850.803 525.289 850.221 526.961 850.221C528.602 850.221 529.898 850.771 530.852 851.873C531.805 852.975 532.281 854.451 532.281 856.303V857.076H523.539V857.193C523.539 858.365 523.859 859.303 524.5 860.006C525.141 860.709 526.008 861.061 527.102 861.061C527.867 861.061 528.52 860.885 529.059 860.533C529.598 860.182 529.953 859.713 530.125 859.127ZM539.395 862.83C537.691 862.83 536.324 862.264 535.293 861.131C534.262 859.99 533.746 858.455 533.746 856.525C533.746 854.596 534.262 853.064 535.293 851.932C536.324 850.791 537.691 850.221 539.395 850.221C541.09 850.221 542.453 850.791 543.484 851.932C544.516 853.064 545.031 854.596 545.031 856.525C545.031 858.447 544.516 859.979 543.484 861.119C542.453 862.26 541.09 862.83 539.395 862.83ZM536.781 859.842C537.43 860.639 538.301 861.037 539.395 861.037C540.488 861.037 541.355 860.643 541.996 859.854C542.637 859.057 542.957 857.947 542.957 856.525C542.957 855.104 542.637 853.998 541.996 853.209C541.355 852.412 540.488 852.014 539.395 852.014C538.301 852.014 537.43 852.412 536.781 853.209C536.141 854.006 535.82 855.111 535.82 856.525C535.82 857.939 536.141 859.045 536.781 859.842ZM562.598 850.432L559.199 862.619H557.125L554.371 853.186H554.324L551.582 862.619H549.508L546.098 850.432H548.125L550.562 860.346H550.609L553.363 850.432H555.332L558.098 860.346H558.145L560.582 850.432H562.598ZM564.262 865.982H562.562L563.699 860.018H565.867L564.262 865.982ZM589.691 862.619H587.723V849.588H587.641L582.25 862.502H580.469L575.078 849.588H574.996V862.619H573.027V845.709H575.477L581.312 859.818H581.406L587.242 845.709H589.691V862.619ZM597.543 851.99C596.598 851.99 595.812 852.318 595.188 852.975C594.57 853.623 594.23 854.459 594.168 855.482H600.789C600.766 854.451 600.457 853.611 599.863 852.963C599.27 852.314 598.496 851.99 597.543 851.99ZM600.742 859.127H602.746C602.566 860.205 602.004 861.092 601.059 861.787C600.121 862.482 598.992 862.83 597.672 862.83C595.93 862.83 594.559 862.268 593.559 861.143C592.559 860.018 592.059 858.494 592.059 856.572C592.059 854.666 592.559 853.131 593.559 851.967C594.566 850.803 595.906 850.221 597.578 850.221C599.219 850.221 600.516 850.771 601.469 851.873C602.422 852.975 602.898 854.451 602.898 856.303V857.076H594.156V857.193C594.156 858.365 594.477 859.303 595.117 860.006C595.758 860.709 596.625 861.061 597.719 861.061C598.484 861.061 599.137 860.885 599.676 860.533C600.215 860.182 600.57 859.713 600.742 859.127ZM610.012 862.83C608.309 862.83 606.941 862.264 605.91 861.131C604.879 859.99 604.363 858.455 604.363 856.525C604.363 854.596 604.879 853.064 605.91 851.932C606.941 850.791 608.309 850.221 610.012 850.221C611.707 850.221 613.07 850.791 614.102 851.932C615.133 853.064 615.648 854.596 615.648 856.525C615.648 858.447 615.133 859.979 614.102 861.119C613.07 862.26 611.707 862.83 610.012 862.83ZM607.398 859.842C608.047 860.639 608.918 861.037 610.012 861.037C611.105 861.037 611.973 860.643 612.613 859.854C613.254 859.057 613.574 857.947 613.574 856.525C613.574 855.104 613.254 853.998 612.613 853.209C611.973 852.412 611.105 852.014 610.012 852.014C608.918 852.014 608.047 852.412 607.398 853.209C606.758 854.006 606.438 855.111 606.438 856.525C606.438 857.939 606.758 859.045 607.398 859.842ZM633.215 850.432L629.816 862.619H627.742L624.988 853.186H624.941L622.199 862.619H620.125L616.715 850.432H618.742L621.18 860.346H621.227L623.98 850.432H625.949L628.715 860.346H628.762L631.199 850.432H633.215ZM634.879 865.982H633.18L634.316 860.018H636.484L634.879 865.982ZM660.309 862.619H658.34V849.588H658.258L652.867 862.502H651.086L645.695 849.588H645.613V862.619H643.645V845.709H646.094L651.93 859.818H652.023L657.859 845.709H660.309V862.619ZM668.16 851.99C667.215 851.99 666.43 852.318 665.805 852.975C665.188 853.623 664.848 854.459 664.785 855.482H671.406C671.383 854.451 671.074 853.611 670.48 852.963C669.887 852.314 669.113 851.99 668.16 851.99ZM671.359 859.127H673.363C673.184 860.205 672.621 861.092 671.676 861.787C670.738 862.482 669.609 862.83 668.289 862.83C666.547 862.83 665.176 862.268 664.176 861.143C663.176 860.018 662.676 858.494 662.676 856.572C662.676 854.666 663.176 853.131 664.176 851.967C665.184 850.803 666.523 850.221 668.195 850.221C669.836 850.221 671.133 850.771 672.086 851.873C673.039 852.975 673.516 854.451 673.516 856.303V857.076H664.773V857.193C664.773 858.365 665.094 859.303 665.734 860.006C666.375 860.709 667.242 861.061 668.336 861.061C669.102 861.061 669.754 860.885 670.293 860.533C670.832 860.182 671.188 859.713 671.359 859.127ZM680.629 862.83C678.926 862.83 677.559 862.264 676.527 861.131C675.496 859.99 674.98 858.455 674.98 856.525C674.98 854.596 675.496 853.064 676.527 851.932C677.559 850.791 678.926 850.221 680.629 850.221C682.324 850.221 683.688 850.791 684.719 851.932C685.75 853.064 686.266 854.596 686.266 856.525C686.266 858.447 685.75 859.979 684.719 861.119C683.688 862.26 682.324 862.83 680.629 862.83ZM678.016 859.842C678.664 860.639 679.535 861.037 680.629 861.037C681.723 861.037 682.59 860.643 683.23 859.854C683.871 859.057 684.191 857.947 684.191 856.525C684.191 855.104 683.871 853.998 683.23 853.209C682.59 852.412 681.723 852.014 680.629 852.014C679.535 852.014 678.664 852.412 678.016 853.209C677.375 854.006 677.055 855.111 677.055 856.525C677.055 857.939 677.375 859.045 678.016 859.842ZM703.832 850.432L700.434 862.619H698.359L695.605 853.186H695.559L692.816 862.619H690.742L687.332 850.432H689.359L691.797 860.346H691.844L694.598 850.432H696.566L699.332 860.346H699.379L701.816 850.432H703.832ZM705.496 865.982H703.797L704.934 860.018H707.102L705.496 865.982ZM730.926 862.619H728.957V849.588H728.875L723.484 862.502H721.703L716.312 849.588H716.23V862.619H714.262V845.709H716.711L722.547 859.818H722.641L728.477 845.709H730.926V862.619ZM738.777 851.99C737.832 851.99 737.047 852.318 736.422 852.975C735.805 853.623 735.465 854.459 735.402 855.482H742.023C742 854.451 741.691 853.611 741.098 852.963C740.504 852.314 739.73 851.99 738.777 851.99ZM741.977 859.127H743.98C743.801 860.205 743.238 861.092 742.293 861.787C741.355 862.482 740.227 862.83 738.906 862.83C737.164 862.83 735.793 862.268 734.793 861.143C733.793 860.018 733.293 858.494 733.293 856.572C733.293 854.666 733.793 853.131 734.793 851.967C735.801 850.803 737.141 850.221 738.812 850.221C740.453 850.221 741.75 850.771 742.703 851.873C743.656 852.975 744.133 854.451 744.133 856.303V857.076H735.391V857.193C735.391 858.365 735.711 859.303 736.352 860.006C736.992 860.709 737.859 861.061 738.953 861.061C739.719 861.061 740.371 860.885 740.91 860.533C741.449 860.182 741.805 859.713 741.977 859.127ZM751.246 862.83C749.543 862.83 748.176 862.264 747.145 861.131C746.113 859.99 745.598 858.455 745.598 856.525C745.598 854.596 746.113 853.064 747.145 851.932C748.176 850.791 749.543 850.221 751.246 850.221C752.941 850.221 754.305 850.791 755.336 851.932C756.367 853.064 756.883 854.596 756.883 856.525C756.883 858.447 756.367 859.979 755.336 861.119C754.305 862.26 752.941 862.83 751.246 862.83ZM748.633 859.842C749.281 860.639 750.152 861.037 751.246 861.037C752.34 861.037 753.207 860.643 753.848 859.854C754.488 859.057 754.809 857.947 754.809 856.525C754.809 855.104 754.488 853.998 753.848 853.209C753.207 852.412 752.34 852.014 751.246 852.014C750.152 852.014 749.281 852.412 748.633 853.209C747.992 854.006 747.672 855.111 747.672 856.525C747.672 857.939 747.992 859.045 748.633 859.842ZM774.449 850.432L771.051 862.619H768.977L766.223 853.186H766.176L763.434 862.619H761.359L757.949 850.432H759.977L762.414 860.346H762.461L765.215 850.432H767.184L769.949 860.346H769.996L772.434 850.432H774.449ZM776.113 865.982H774.414L775.551 860.018H777.719L776.113 865.982ZM165.988 891.619H164.02V878.588H163.938L158.547 891.502H156.766L151.375 878.588H151.293V891.619H149.324V874.709H151.773L157.609 888.818H157.703L163.539 874.709H165.988V891.619ZM173.84 880.99C172.895 880.99 172.109 881.318 171.484 881.975C170.867 882.623 170.527 883.459 170.465 884.482H177.086C177.062 883.451 176.754 882.611 176.16 881.963C175.566 881.314 174.793 880.99 173.84 880.99ZM177.039 888.127H179.043C178.863 889.205 178.301 890.092 177.355 890.787C176.418 891.482 175.289 891.83 173.969 891.83C172.227 891.83 170.855 891.268 169.855 890.143C168.855 889.018 168.355 887.494 168.355 885.572C168.355 883.666 168.855 882.131 169.855 880.967C170.863 879.803 172.203 879.221 173.875 879.221C175.516 879.221 176.812 879.771 177.766 880.873C178.719 881.975 179.195 883.451 179.195 885.303V886.076H170.453V886.193C170.453 887.365 170.773 888.303 171.414 889.006C172.055 889.709 172.922 890.061 174.016 890.061C174.781 890.061 175.434 889.885 175.973 889.533C176.512 889.182 176.867 888.713 177.039 888.127ZM186.309 891.83C184.605 891.83 183.238 891.264 182.207 890.131C181.176 888.99 180.66 887.455 180.66 885.525C180.66 883.596 181.176 882.064 182.207 880.932C183.238 879.791 184.605 879.221 186.309 879.221C188.004 879.221 189.367 879.791 190.398 880.932C191.43 882.064 191.945 883.596 191.945 885.525C191.945 887.447 191.43 888.979 190.398 890.119C189.367 891.26 188.004 891.83 186.309 891.83ZM183.695 888.842C184.344 889.639 185.215 890.037 186.309 890.037C187.402 890.037 188.27 889.643 188.91 888.854C189.551 888.057 189.871 886.947 189.871 885.525C189.871 884.104 189.551 882.998 188.91 882.209C188.27 881.412 187.402 881.014 186.309 881.014C185.215 881.014 184.344 881.412 183.695 882.209C183.055 883.006 182.734 884.111 182.734 885.525C182.734 886.939 183.055 888.045 183.695 888.842ZM209.512 879.432L206.113 891.619H204.039L201.285 882.186H201.238L198.496 891.619H196.422L193.012 879.432H195.039L197.477 889.346H197.523L200.277 879.432H202.246L205.012 889.346H205.059L207.496 879.432H209.512ZM211.176 894.982H209.477L210.613 889.018H212.781L211.176 894.982ZM236.605 891.619H234.637V878.588H234.555L229.164 891.502H227.383L221.992 878.588H221.91V891.619H219.941V874.709H222.391L228.227 888.818H228.32L234.156 874.709H236.605V891.619ZM244.457 880.99C243.512 880.99 242.727 881.318 242.102 881.975C241.484 882.623 241.145 883.459 241.082 884.482H247.703C247.68 883.451 247.371 882.611 246.777 881.963C246.184 881.314 245.41 880.99 244.457 880.99ZM247.656 888.127H249.66C249.48 889.205 248.918 890.092 247.973 890.787C247.035 891.482 245.906 891.83 244.586 891.83C242.844 891.83 241.473 891.268 240.473 890.143C239.473 889.018 238.973 887.494 238.973 885.572C238.973 883.666 239.473 882.131 240.473 880.967C241.48 879.803 242.82 879.221 244.492 879.221C246.133 879.221 247.43 879.771 248.383 880.873C249.336 881.975 249.812 883.451 249.812 885.303V886.076H241.07V886.193C241.07 887.365 241.391 888.303 242.031 889.006C242.672 889.709 243.539 890.061 244.633 890.061C245.398 890.061 246.051 889.885 246.59 889.533C247.129 889.182 247.484 888.713 247.656 888.127ZM256.926 891.83C255.223 891.83 253.855 891.264 252.824 890.131C251.793 888.99 251.277 887.455 251.277 885.525C251.277 883.596 251.793 882.064 252.824 880.932C253.855 879.791 255.223 879.221 256.926 879.221C258.621 879.221 259.984 879.791 261.016 880.932C262.047 882.064 262.562 883.596 262.562 885.525C262.562 887.447 262.047 888.979 261.016 890.119C259.984 891.26 258.621 891.83 256.926 891.83ZM254.312 888.842C254.961 889.639 255.832 890.037 256.926 890.037C258.02 890.037 258.887 889.643 259.527 888.854C260.168 888.057 260.488 886.947 260.488 885.525C260.488 884.104 260.168 882.998 259.527 882.209C258.887 881.412 258.02 881.014 256.926 881.014C255.832 881.014 254.961 881.412 254.312 882.209C253.672 883.006 253.352 884.111 253.352 885.525C253.352 886.939 253.672 888.045 254.312 888.842ZM280.129 879.432L276.73 891.619H274.656L271.902 882.186H271.855L269.113 891.619H267.039L263.629 879.432H265.656L268.094 889.346H268.141L270.895 879.432H272.863L275.629 889.346H275.676L278.113 879.432H280.129ZM281.793 894.982H280.094L281.23 889.018H283.398L281.793 894.982ZM307.223 891.619H305.254V878.588H305.172L299.781 891.502H298L292.609 878.588H292.527V891.619H290.559V874.709H293.008L298.844 888.818H298.938L304.773 874.709H307.223V891.619ZM315.074 880.99C314.129 880.99 313.344 881.318 312.719 881.975C312.102 882.623 311.762 883.459 311.699 884.482H318.32C318.297 883.451 317.988 882.611 317.395 881.963C316.801 881.314 316.027 880.99 315.074 880.99ZM318.273 888.127H320.277C320.098 889.205 319.535 890.092 318.59 890.787C317.652 891.482 316.523 891.83 315.203 891.83C313.461 891.83 312.09 891.268 311.09 890.143C310.09 889.018 309.59 887.494 309.59 885.572C309.59 883.666 310.09 882.131 311.09 880.967C312.098 879.803 313.438 879.221 315.109 879.221C316.75 879.221 318.047 879.771 319 880.873C319.953 881.975 320.43 883.451 320.43 885.303V886.076H311.688V886.193C311.688 887.365 312.008 888.303 312.648 889.006C313.289 889.709 314.156 890.061 315.25 890.061C316.016 890.061 316.668 889.885 317.207 889.533C317.746 889.182 318.102 888.713 318.273 888.127ZM327.543 891.83C325.84 891.83 324.473 891.264 323.441 890.131C322.41 888.99 321.895 887.455 321.895 885.525C321.895 883.596 322.41 882.064 323.441 880.932C324.473 879.791 325.84 879.221 327.543 879.221C329.238 879.221 330.602 879.791 331.633 880.932C332.664 882.064 333.18 883.596 333.18 885.525C333.18 887.447 332.664 888.979 331.633 890.119C330.602 891.26 329.238 891.83 327.543 891.83ZM324.93 888.842C325.578 889.639 326.449 890.037 327.543 890.037C328.637 890.037 329.504 889.643 330.145 888.854C330.785 888.057 331.105 886.947 331.105 885.525C331.105 884.104 330.785 882.998 330.145 882.209C329.504 881.412 328.637 881.014 327.543 881.014C326.449 881.014 325.578 881.412 324.93 882.209C324.289 883.006 323.969 884.111 323.969 885.525C323.969 886.939 324.289 888.045 324.93 888.842ZM350.746 879.432L347.348 891.619H345.273L342.52 882.186H342.473L339.73 891.619H337.656L334.246 879.432H336.273L338.711 889.346H338.758L341.512 879.432H343.48L346.246 889.346H346.293L348.73 879.432H350.746ZM352.41 894.982H350.711L351.848 889.018H354.016L352.41 894.982ZM377.84 891.619H375.871V878.588H375.789L370.398 891.502H368.617L363.227 878.588H363.145V891.619H361.176V874.709H363.625L369.461 888.818H369.555L375.391 874.709H377.84V891.619ZM385.691 880.99C384.746 880.99 383.961 881.318 383.336 881.975C382.719 882.623 382.379 883.459 382.316 884.482H388.938C388.914 883.451 388.605 882.611 388.012 881.963C387.418 881.314 386.645 880.99 385.691 880.99ZM388.891 888.127H390.895C390.715 889.205 390.152 890.092 389.207 890.787C388.27 891.482 387.141 891.83 385.82 891.83C384.078 891.83 382.707 891.268 381.707 890.143C380.707 889.018 380.207 887.494 380.207 885.572C380.207 883.666 380.707 882.131 381.707 880.967C382.715 879.803 384.055 879.221 385.727 879.221C387.367 879.221 388.664 879.771 389.617 880.873C390.57 881.975 391.047 883.451 391.047 885.303V886.076H382.305V886.193C382.305 887.365 382.625 888.303 383.266 889.006C383.906 889.709 384.773 890.061 385.867 890.061C386.633 890.061 387.285 889.885 387.824 889.533C388.363 889.182 388.719 888.713 388.891 888.127ZM398.16 891.83C396.457 891.83 395.09 891.264 394.059 890.131C393.027 888.99 392.512 887.455 392.512 885.525C392.512 883.596 393.027 882.064 394.059 880.932C395.09 879.791 396.457 879.221 398.16 879.221C399.855 879.221 401.219 879.791 402.25 880.932C403.281 882.064 403.797 883.596 403.797 885.525C403.797 887.447 403.281 888.979 402.25 890.119C401.219 891.26 399.855 891.83 398.16 891.83ZM395.547 888.842C396.195 889.639 397.066 890.037 398.16 890.037C399.254 890.037 400.121 889.643 400.762 888.854C401.402 888.057 401.723 886.947 401.723 885.525C401.723 884.104 401.402 882.998 400.762 882.209C400.121 881.412 399.254 881.014 398.16 881.014C397.066 881.014 396.195 881.412 395.547 882.209C394.906 883.006 394.586 884.111 394.586 885.525C394.586 886.939 394.906 888.045 395.547 888.842ZM421.363 879.432L417.965 891.619H415.891L413.137 882.186H413.09L410.348 891.619H408.273L404.863 879.432H406.891L409.328 889.346H409.375L412.129 879.432H414.098L416.863 889.346H416.91L419.348 879.432H421.363ZM423.027 894.982H421.328L422.465 889.018H424.633L423.027 894.982ZM448.457 891.619H446.488V878.588H446.406L441.016 891.502H439.234L433.844 878.588H433.762V891.619H431.793V874.709H434.242L440.078 888.818H440.172L446.008 874.709H448.457V891.619ZM456.309 880.99C455.363 880.99 454.578 881.318 453.953 881.975C453.336 882.623 452.996 883.459 452.934 884.482H459.555C459.531 883.451 459.223 882.611 458.629 881.963C458.035 881.314 457.262 880.99 456.309 880.99ZM459.508 888.127H461.512C461.332 889.205 460.77 890.092 459.824 890.787C458.887 891.482 457.758 891.83 456.438 891.83C454.695 891.83 453.324 891.268 452.324 890.143C451.324 889.018 450.824 887.494 450.824 885.572C450.824 883.666 451.324 882.131 452.324 880.967C453.332 879.803 454.672 879.221 456.344 879.221C457.984 879.221 459.281 879.771 460.234 880.873C461.188 881.975 461.664 883.451 461.664 885.303V886.076H452.922V886.193C452.922 887.365 453.242 888.303 453.883 889.006C454.523 889.709 455.391 890.061 456.484 890.061C457.25 890.061 457.902 889.885 458.441 889.533C458.98 889.182 459.336 888.713 459.508 888.127ZM468.777 891.83C467.074 891.83 465.707 891.264 464.676 890.131C463.645 888.99 463.129 887.455 463.129 885.525C463.129 883.596 463.645 882.064 464.676 880.932C465.707 879.791 467.074 879.221 468.777 879.221C470.473 879.221 471.836 879.791 472.867 880.932C473.898 882.064 474.414 883.596 474.414 885.525C474.414 887.447 473.898 888.979 472.867 890.119C471.836 891.26 470.473 891.83 468.777 891.83ZM466.164 888.842C466.812 889.639 467.684 890.037 468.777 890.037C469.871 890.037 470.738 889.643 471.379 888.854C472.02 888.057 472.34 886.947 472.34 885.525C472.34 884.104 472.02 882.998 471.379 882.209C470.738 881.412 469.871 881.014 468.777 881.014C467.684 881.014 466.812 881.412 466.164 882.209C465.523 883.006 465.203 884.111 465.203 885.525C465.203 886.939 465.523 888.045 466.164 888.842ZM491.98 879.432L488.582 891.619H486.508L483.754 882.186H483.707L480.965 891.619H478.891L475.48 879.432H477.508L479.945 889.346H479.992L482.746 879.432H484.715L487.48 889.346H487.527L489.965 879.432H491.98ZM493.645 894.982H491.945L493.082 889.018H495.25L493.645 894.982ZM519.074 891.619H517.105V878.588H517.023L511.633 891.502H509.852L504.461 878.588H504.379V891.619H502.41V874.709H504.859L510.695 888.818H510.789L516.625 874.709H519.074V891.619ZM526.926 880.99C525.98 880.99 525.195 881.318 524.57 881.975C523.953 882.623 523.613 883.459 523.551 884.482H530.172C530.148 883.451 529.84 882.611 529.246 881.963C528.652 881.314 527.879 880.99 526.926 880.99ZM530.125 888.127H532.129C531.949 889.205 531.387 890.092 530.441 890.787C529.504 891.482 528.375 891.83 527.055 891.83C525.312 891.83 523.941 891.268 522.941 890.143C521.941 889.018 521.441 887.494 521.441 885.572C521.441 883.666 521.941 882.131 522.941 880.967C523.949 879.803 525.289 879.221 526.961 879.221C528.602 879.221 529.898 879.771 530.852 880.873C531.805 881.975 532.281 883.451 532.281 885.303V886.076H523.539V886.193C523.539 887.365 523.859 888.303 524.5 889.006C525.141 889.709 526.008 890.061 527.102 890.061C527.867 890.061 528.52 889.885 529.059 889.533C529.598 889.182 529.953 888.713 530.125 888.127ZM539.395 891.83C537.691 891.83 536.324 891.264 535.293 890.131C534.262 888.99 533.746 887.455 533.746 885.525C533.746 883.596 534.262 882.064 535.293 880.932C536.324 879.791 537.691 879.221 539.395 879.221C541.09 879.221 542.453 879.791 543.484 880.932C544.516 882.064 545.031 883.596 545.031 885.525C545.031 887.447 544.516 888.979 543.484 890.119C542.453 891.26 541.09 891.83 539.395 891.83ZM536.781 888.842C537.43 889.639 538.301 890.037 539.395 890.037C540.488 890.037 541.355 889.643 541.996 888.854C542.637 888.057 542.957 886.947 542.957 885.525C542.957 884.104 542.637 882.998 541.996 882.209C541.355 881.412 540.488 881.014 539.395 881.014C538.301 881.014 537.43 881.412 536.781 882.209C536.141 883.006 535.82 884.111 535.82 885.525C535.82 886.939 536.141 888.045 536.781 888.842ZM562.598 879.432L559.199 891.619H557.125L554.371 882.186H554.324L551.582 891.619H549.508L546.098 879.432H548.125L550.562 889.346H550.609L553.363 879.432H555.332L558.098 889.346H558.145L560.582 879.432H562.598ZM564.262 894.982H562.562L563.699 889.018H565.867L564.262 894.982ZM589.691 891.619H587.723V878.588H587.641L582.25 891.502H580.469L575.078 878.588H574.996V891.619H573.027V874.709H575.477L581.312 888.818H581.406L587.242 874.709H589.691V891.619ZM597.543 880.99C596.598 880.99 595.812 881.318 595.188 881.975C594.57 882.623 594.23 883.459 594.168 884.482H600.789C600.766 883.451 600.457 882.611 599.863 881.963C599.27 881.314 598.496 880.99 597.543 880.99ZM600.742 888.127H602.746C602.566 889.205 602.004 890.092 601.059 890.787C600.121 891.482 598.992 891.83 597.672 891.83C595.93 891.83 594.559 891.268 593.559 890.143C592.559 889.018 592.059 887.494 592.059 885.572C592.059 883.666 592.559 882.131 593.559 880.967C594.566 879.803 595.906 879.221 597.578 879.221C599.219 879.221 600.516 879.771 601.469 880.873C602.422 881.975 602.898 883.451 602.898 885.303V886.076H594.156V886.193C594.156 887.365 594.477 888.303 595.117 889.006C595.758 889.709 596.625 890.061 597.719 890.061C598.484 890.061 599.137 889.885 599.676 889.533C600.215 889.182 600.57 888.713 600.742 888.127ZM610.012 891.83C608.309 891.83 606.941 891.264 605.91 890.131C604.879 888.99 604.363 887.455 604.363 885.525C604.363 883.596 604.879 882.064 605.91 880.932C606.941 879.791 608.309 879.221 610.012 879.221C611.707 879.221 613.07 879.791 614.102 880.932C615.133 882.064 615.648 883.596 615.648 885.525C615.648 887.447 615.133 888.979 614.102 890.119C613.07 891.26 611.707 891.83 610.012 891.83ZM607.398 888.842C608.047 889.639 608.918 890.037 610.012 890.037C611.105 890.037 611.973 889.643 612.613 888.854C613.254 888.057 613.574 886.947 613.574 885.525C613.574 884.104 613.254 882.998 612.613 882.209C611.973 881.412 611.105 881.014 610.012 881.014C608.918 881.014 608.047 881.412 607.398 882.209C606.758 883.006 606.438 884.111 606.438 885.525C606.438 886.939 606.758 888.045 607.398 888.842ZM633.215 879.432L629.816 891.619H627.742L624.988 882.186H624.941L622.199 891.619H620.125L616.715 879.432H618.742L621.18 889.346H621.227L623.98 879.432H625.949L628.715 889.346H628.762L631.199 879.432H633.215ZM634.879 894.982H633.18L634.316 889.018H636.484L634.879 894.982ZM660.309 891.619H658.34V878.588H658.258L652.867 891.502H651.086L645.695 878.588H645.613V891.619H643.645V874.709H646.094L651.93 888.818H652.023L657.859 874.709H660.309V891.619ZM668.16 880.99C667.215 880.99 666.43 881.318 665.805 881.975C665.188 882.623 664.848 883.459 664.785 884.482H671.406C671.383 883.451 671.074 882.611 670.48 881.963C669.887 881.314 669.113 880.99 668.16 880.99ZM671.359 888.127H673.363C673.184 889.205 672.621 890.092 671.676 890.787C670.738 891.482 669.609 891.83 668.289 891.83C666.547 891.83 665.176 891.268 664.176 890.143C663.176 889.018 662.676 887.494 662.676 885.572C662.676 883.666 663.176 882.131 664.176 880.967C665.184 879.803 666.523 879.221 668.195 879.221C669.836 879.221 671.133 879.771 672.086 880.873C673.039 881.975 673.516 883.451 673.516 885.303V886.076H664.773V886.193C664.773 887.365 665.094 888.303 665.734 889.006C666.375 889.709 667.242 890.061 668.336 890.061C669.102 890.061 669.754 889.885 670.293 889.533C670.832 889.182 671.188 888.713 671.359 888.127ZM680.629 891.83C678.926 891.83 677.559 891.264 676.527 890.131C675.496 888.99 674.98 887.455 674.98 885.525C674.98 883.596 675.496 882.064 676.527 880.932C677.559 879.791 678.926 879.221 680.629 879.221C682.324 879.221 683.688 879.791 684.719 880.932C685.75 882.064 686.266 883.596 686.266 885.525C686.266 887.447 685.75 888.979 684.719 890.119C683.688 891.26 682.324 891.83 680.629 891.83ZM678.016 888.842C678.664 889.639 679.535 890.037 680.629 890.037C681.723 890.037 682.59 889.643 683.23 888.854C683.871 888.057 684.191 886.947 684.191 885.525C684.191 884.104 683.871 882.998 683.23 882.209C682.59 881.412 681.723 881.014 680.629 881.014C679.535 881.014 678.664 881.412 678.016 882.209C677.375 883.006 677.055 884.111 677.055 885.525C677.055 886.939 677.375 888.045 678.016 888.842ZM703.832 879.432L700.434 891.619H698.359L695.605 882.186H695.559L692.816 891.619H690.742L687.332 879.432H689.359L691.797 889.346H691.844L694.598 879.432H696.566L699.332 889.346H699.379L701.816 879.432H703.832ZM705.496 894.982H703.797L704.934 889.018H707.102L705.496 894.982ZM730.926 891.619H728.957V878.588H728.875L723.484 891.502H721.703L716.312 878.588H716.23V891.619H714.262V874.709H716.711L722.547 888.818H722.641L728.477 874.709H730.926V891.619ZM738.777 880.99C737.832 880.99 737.047 881.318 736.422 881.975C735.805 882.623 735.465 883.459 735.402 884.482H742.023C742 883.451 741.691 882.611 741.098 881.963C740.504 881.314 739.73 880.99 738.777 880.99ZM741.977 888.127H743.98C743.801 889.205 743.238 890.092 742.293 890.787C741.355 891.482 740.227 891.83 738.906 891.83C737.164 891.83 735.793 891.268 734.793 890.143C733.793 889.018 733.293 887.494 733.293 885.572C733.293 883.666 733.793 882.131 734.793 880.967C735.801 879.803 737.141 879.221 738.812 879.221C740.453 879.221 741.75 879.771 742.703 880.873C743.656 881.975 744.133 883.451 744.133 885.303V886.076H735.391V886.193C735.391 887.365 735.711 888.303 736.352 889.006C736.992 889.709 737.859 890.061 738.953 890.061C739.719 890.061 740.371 889.885 740.91 889.533C741.449 889.182 741.805 888.713 741.977 888.127ZM751.246 891.83C749.543 891.83 748.176 891.264 747.145 890.131C746.113 888.99 745.598 887.455 745.598 885.525C745.598 883.596 746.113 882.064 747.145 880.932C748.176 879.791 749.543 879.221 751.246 879.221C752.941 879.221 754.305 879.791 755.336 880.932C756.367 882.064 756.883 883.596 756.883 885.525C756.883 887.447 756.367 888.979 755.336 890.119C754.305 891.26 752.941 891.83 751.246 891.83ZM748.633 888.842C749.281 889.639 750.152 890.037 751.246 890.037C752.34 890.037 753.207 889.643 753.848 888.854C754.488 888.057 754.809 886.947 754.809 885.525C754.809 884.104 754.488 882.998 753.848 882.209C753.207 881.412 752.34 881.014 751.246 881.014C750.152 881.014 749.281 881.412 748.633 882.209C747.992 883.006 747.672 884.111 747.672 885.525C747.672 886.939 747.992 888.045 748.633 888.842ZM774.449 879.432L771.051 891.619H768.977L766.223 882.186H766.176L763.434 891.619H761.359L757.949 879.432H759.977L762.414 889.346H762.461L765.215 879.432H767.184L769.949 889.346H769.996L772.434 879.432H774.449ZM776.113 894.982H774.414L775.551 889.018H777.719L776.113 894.982ZM165.988 920.619H164.02V907.588H163.938L158.547 920.502H156.766L151.375 907.588H151.293V920.619H149.324V903.709H151.773L157.609 917.818H157.703L163.539 903.709H165.988V920.619ZM173.84 909.99C172.895 909.99 172.109 910.318 171.484 910.975C170.867 911.623 170.527 912.459 170.465 913.482H177.086C177.062 912.451 176.754 911.611 176.16 910.963C175.566 910.314 174.793 909.99 173.84 909.99ZM177.039 917.127H179.043C178.863 918.205 178.301 919.092 177.355 919.787C176.418 920.482 175.289 920.83 173.969 920.83C172.227 920.83 170.855 920.268 169.855 919.143C168.855 918.018 168.355 916.494 168.355 914.572C168.355 912.666 168.855 911.131 169.855 909.967C170.863 908.803 172.203 908.221 173.875 908.221C175.516 908.221 176.812 908.771 177.766 909.873C178.719 910.975 179.195 912.451 179.195 914.303V915.076H170.453V915.193C170.453 916.365 170.773 917.303 171.414 918.006C172.055 918.709 172.922 919.061 174.016 919.061C174.781 919.061 175.434 918.885 175.973 918.533C176.512 918.182 176.867 917.713 177.039 917.127ZM186.309 920.83C184.605 920.83 183.238 920.264 182.207 919.131C181.176 917.99 180.66 916.455 180.66 914.525C180.66 912.596 181.176 911.064 182.207 909.932C183.238 908.791 184.605 908.221 186.309 908.221C188.004 908.221 189.367 908.791 190.398 909.932C191.43 911.064 191.945 912.596 191.945 914.525C191.945 916.447 191.43 917.979 190.398 919.119C189.367 920.26 188.004 920.83 186.309 920.83ZM183.695 917.842C184.344 918.639 185.215 919.037 186.309 919.037C187.402 919.037 188.27 918.643 188.91 917.854C189.551 917.057 189.871 915.947 189.871 914.525C189.871 913.104 189.551 911.998 188.91 911.209C188.27 910.412 187.402 910.014 186.309 910.014C185.215 910.014 184.344 910.412 183.695 911.209C183.055 912.006 182.734 913.111 182.734 914.525C182.734 915.939 183.055 917.045 183.695 917.842ZM209.512 908.432L206.113 920.619H204.039L201.285 911.186H201.238L198.496 920.619H196.422L193.012 908.432H195.039L197.477 918.346H197.523L200.277 908.432H202.246L205.012 918.346H205.059L207.496 908.432H209.512ZM211.176 923.982H209.477L210.613 918.018H212.781L211.176 923.982ZM236.605 920.619H234.637V907.588H234.555L229.164 920.502H227.383L221.992 907.588H221.91V920.619H219.941V903.709H222.391L228.227 917.818H228.32L234.156 903.709H236.605V920.619ZM244.457 909.99C243.512 909.99 242.727 910.318 242.102 910.975C241.484 911.623 241.145 912.459 241.082 913.482H247.703C247.68 912.451 247.371 911.611 246.777 910.963C246.184 910.314 245.41 909.99 244.457 909.99ZM247.656 917.127H249.66C249.48 918.205 248.918 919.092 247.973 919.787C247.035 920.482 245.906 920.83 244.586 920.83C242.844 920.83 241.473 920.268 240.473 919.143C239.473 918.018 238.973 916.494 238.973 914.572C238.973 912.666 239.473 911.131 240.473 909.967C241.48 908.803 242.82 908.221 244.492 908.221C246.133 908.221 247.43 908.771 248.383 909.873C249.336 910.975 249.812 912.451 249.812 914.303V915.076H241.07V915.193C241.07 916.365 241.391 917.303 242.031 918.006C242.672 918.709 243.539 919.061 244.633 919.061C245.398 919.061 246.051 918.885 246.59 918.533C247.129 918.182 247.484 917.713 247.656 917.127ZM256.926 920.83C255.223 920.83 253.855 920.264 252.824 919.131C251.793 917.99 251.277 916.455 251.277 914.525C251.277 912.596 251.793 911.064 252.824 909.932C253.855 908.791 255.223 908.221 256.926 908.221C258.621 908.221 259.984 908.791 261.016 909.932C262.047 911.064 262.562 912.596 262.562 914.525C262.562 916.447 262.047 917.979 261.016 919.119C259.984 920.26 258.621 920.83 256.926 920.83ZM254.312 917.842C254.961 918.639 255.832 919.037 256.926 919.037C258.02 919.037 258.887 918.643 259.527 917.854C260.168 917.057 260.488 915.947 260.488 914.525C260.488 913.104 260.168 911.998 259.527 911.209C258.887 910.412 258.02 910.014 256.926 910.014C255.832 910.014 254.961 910.412 254.312 911.209C253.672 912.006 253.352 913.111 253.352 914.525C253.352 915.939 253.672 917.045 254.312 917.842ZM280.129 908.432L276.73 920.619H274.656L271.902 911.186H271.855L269.113 920.619H267.039L263.629 908.432H265.656L268.094 918.346H268.141L270.895 908.432H272.863L275.629 918.346H275.676L278.113 908.432H280.129ZM281.793 923.982H280.094L281.23 918.018H283.398L281.793 923.982ZM307.223 920.619H305.254V907.588H305.172L299.781 920.502H298L292.609 907.588H292.527V920.619H290.559V903.709H293.008L298.844 917.818H298.938L304.773 903.709H307.223V920.619ZM315.074 909.99C314.129 909.99 313.344 910.318 312.719 910.975C312.102 911.623 311.762 912.459 311.699 913.482H318.32C318.297 912.451 317.988 911.611 317.395 910.963C316.801 910.314 316.027 909.99 315.074 909.99ZM318.273 917.127H320.277C320.098 918.205 319.535 919.092 318.59 919.787C317.652 920.482 316.523 920.83 315.203 920.83C313.461 920.83 312.09 920.268 311.09 919.143C310.09 918.018 309.59 916.494 309.59 914.572C309.59 912.666 310.09 911.131 311.09 909.967C312.098 908.803 313.438 908.221 315.109 908.221C316.75 908.221 318.047 908.771 319 909.873C319.953 910.975 320.43 912.451 320.43 914.303V915.076H311.688V915.193C311.688 916.365 312.008 917.303 312.648 918.006C313.289 918.709 314.156 919.061 315.25 919.061C316.016 919.061 316.668 918.885 317.207 918.533C317.746 918.182 318.102 917.713 318.273 917.127ZM327.543 920.83C325.84 920.83 324.473 920.264 323.441 919.131C322.41 917.99 321.895 916.455 321.895 914.525C321.895 912.596 322.41 911.064 323.441 909.932C324.473 908.791 325.84 908.221 327.543 908.221C329.238 908.221 330.602 908.791 331.633 909.932C332.664 911.064 333.18 912.596 333.18 914.525C333.18 916.447 332.664 917.979 331.633 919.119C330.602 920.26 329.238 920.83 327.543 920.83ZM324.93 917.842C325.578 918.639 326.449 919.037 327.543 919.037C328.637 919.037 329.504 918.643 330.145 917.854C330.785 917.057 331.105 915.947 331.105 914.525C331.105 913.104 330.785 911.998 330.145 911.209C329.504 910.412 328.637 910.014 327.543 910.014C326.449 910.014 325.578 910.412 324.93 911.209C324.289 912.006 323.969 913.111 323.969 914.525C323.969 915.939 324.289 917.045 324.93 917.842ZM350.746 908.432L347.348 920.619H345.273L342.52 911.186H342.473L339.73 920.619H337.656L334.246 908.432H336.273L338.711 918.346H338.758L341.512 908.432H343.48L346.246 918.346H346.293L348.73 908.432H350.746ZM352.41 923.982H350.711L351.848 918.018H354.016L352.41 923.982ZM377.84 920.619H375.871V907.588H375.789L370.398 920.502H368.617L363.227 907.588H363.145V920.619H361.176V903.709H363.625L369.461 917.818H369.555L375.391 903.709H377.84V920.619ZM385.691 909.99C384.746 909.99 383.961 910.318 383.336 910.975C382.719 911.623 382.379 912.459 382.316 913.482H388.938C388.914 912.451 388.605 911.611 388.012 910.963C387.418 910.314 386.645 909.99 385.691 909.99ZM388.891 917.127H390.895C390.715 918.205 390.152 919.092 389.207 919.787C388.27 920.482 387.141 920.83 385.82 920.83C384.078 920.83 382.707 920.268 381.707 919.143C380.707 918.018 380.207 916.494 380.207 914.572C380.207 912.666 380.707 911.131 381.707 909.967C382.715 908.803 384.055 908.221 385.727 908.221C387.367 908.221 388.664 908.771 389.617 909.873C390.57 910.975 391.047 912.451 391.047 914.303V915.076H382.305V915.193C382.305 916.365 382.625 917.303 383.266 918.006C383.906 918.709 384.773 919.061 385.867 919.061C386.633 919.061 387.285 918.885 387.824 918.533C388.363 918.182 388.719 917.713 388.891 917.127ZM398.16 920.83C396.457 920.83 395.09 920.264 394.059 919.131C393.027 917.99 392.512 916.455 392.512 914.525C392.512 912.596 393.027 911.064 394.059 909.932C395.09 908.791 396.457 908.221 398.16 908.221C399.855 908.221 401.219 908.791 402.25 909.932C403.281 911.064 403.797 912.596 403.797 914.525C403.797 916.447 403.281 917.979 402.25 919.119C401.219 920.26 399.855 920.83 398.16 920.83ZM395.547 917.842C396.195 918.639 397.066 919.037 398.16 919.037C399.254 919.037 400.121 918.643 400.762 917.854C401.402 917.057 401.723 915.947 401.723 914.525C401.723 913.104 401.402 911.998 400.762 911.209C400.121 910.412 399.254 910.014 398.16 910.014C397.066 910.014 396.195 910.412 395.547 911.209C394.906 912.006 394.586 913.111 394.586 914.525C394.586 915.939 394.906 917.045 395.547 917.842ZM421.363 908.432L417.965 920.619H415.891L413.137 911.186H413.09L410.348 920.619H408.273L404.863 908.432H406.891L409.328 918.346H409.375L412.129 908.432H414.098L416.863 918.346H416.91L419.348 908.432H421.363ZM423.027 923.982H421.328L422.465 918.018H424.633L423.027 923.982ZM448.457 920.619H446.488V907.588H446.406L441.016 920.502H439.234L433.844 907.588H433.762V920.619H431.793V903.709H434.242L440.078 917.818H440.172L446.008 903.709H448.457V920.619ZM456.309 909.99C455.363 909.99 454.578 910.318 453.953 910.975C453.336 911.623 452.996 912.459 452.934 913.482H459.555C459.531 912.451 459.223 911.611 458.629 910.963C458.035 910.314 457.262 909.99 456.309 909.99ZM459.508 917.127H461.512C461.332 918.205 460.77 919.092 459.824 919.787C458.887 920.482 457.758 920.83 456.438 920.83C454.695 920.83 453.324 920.268 452.324 919.143C451.324 918.018 450.824 916.494 450.824 914.572C450.824 912.666 451.324 911.131 452.324 909.967C453.332 908.803 454.672 908.221 456.344 908.221C457.984 908.221 459.281 908.771 460.234 909.873C461.188 910.975 461.664 912.451 461.664 914.303V915.076H452.922V915.193C452.922 916.365 453.242 917.303 453.883 918.006C454.523 918.709 455.391 919.061 456.484 919.061C457.25 919.061 457.902 918.885 458.441 918.533C458.98 918.182 459.336 917.713 459.508 917.127ZM468.777 920.83C467.074 920.83 465.707 920.264 464.676 919.131C463.645 917.99 463.129 916.455 463.129 914.525C463.129 912.596 463.645 911.064 464.676 909.932C465.707 908.791 467.074 908.221 468.777 908.221C470.473 908.221 471.836 908.791 472.867 909.932C473.898 911.064 474.414 912.596 474.414 914.525C474.414 916.447 473.898 917.979 472.867 919.119C471.836 920.26 470.473 920.83 468.777 920.83ZM466.164 917.842C466.812 918.639 467.684 919.037 468.777 919.037C469.871 919.037 470.738 918.643 471.379 917.854C472.02 917.057 472.34 915.947 472.34 914.525C472.34 913.104 472.02 911.998 471.379 911.209C470.738 910.412 469.871 910.014 468.777 910.014C467.684 910.014 466.812 910.412 466.164 911.209C465.523 912.006 465.203 913.111 465.203 914.525C465.203 915.939 465.523 917.045 466.164 917.842ZM491.98 908.432L488.582 920.619H486.508L483.754 911.186H483.707L480.965 920.619H478.891L475.48 908.432H477.508L479.945 918.346H479.992L482.746 908.432H484.715L487.48 918.346H487.527L489.965 908.432H491.98ZM493.645 923.982H491.945L493.082 918.018H495.25L493.645 923.982ZM519.074 920.619H517.105V907.588H517.023L511.633 920.502H509.852L504.461 907.588H504.379V920.619H502.41V903.709H504.859L510.695 917.818H510.789L516.625 903.709H519.074V920.619ZM526.926 909.99C525.98 909.99 525.195 910.318 524.57 910.975C523.953 911.623 523.613 912.459 523.551 913.482H530.172C530.148 912.451 529.84 911.611 529.246 910.963C528.652 910.314 527.879 909.99 526.926 909.99ZM530.125 917.127H532.129C531.949 918.205 531.387 919.092 530.441 919.787C529.504 920.482 528.375 920.83 527.055 920.83C525.312 920.83 523.941 920.268 522.941 919.143C521.941 918.018 521.441 916.494 521.441 914.572C521.441 912.666 521.941 911.131 522.941 909.967C523.949 908.803 525.289 908.221 526.961 908.221C528.602 908.221 529.898 908.771 530.852 909.873C531.805 910.975 532.281 912.451 532.281 914.303V915.076H523.539V915.193C523.539 916.365 523.859 917.303 524.5 918.006C525.141 918.709 526.008 919.061 527.102 919.061C527.867 919.061 528.52 918.885 529.059 918.533C529.598 918.182 529.953 917.713 530.125 917.127ZM539.395 920.83C537.691 920.83 536.324 920.264 535.293 919.131C534.262 917.99 533.746 916.455 533.746 914.525C533.746 912.596 534.262 911.064 535.293 909.932C536.324 908.791 537.691 908.221 539.395 908.221C541.09 908.221 542.453 908.791 543.484 909.932C544.516 911.064 545.031 912.596 545.031 914.525C545.031 916.447 544.516 917.979 543.484 919.119C542.453 920.26 541.09 920.83 539.395 920.83ZM536.781 917.842C537.43 918.639 538.301 919.037 539.395 919.037C540.488 919.037 541.355 918.643 541.996 917.854C542.637 917.057 542.957 915.947 542.957 914.525C542.957 913.104 542.637 911.998 541.996 911.209C541.355 910.412 540.488 910.014 539.395 910.014C538.301 910.014 537.43 910.412 536.781 911.209C536.141 912.006 535.82 913.111 535.82 914.525C535.82 915.939 536.141 917.045 536.781 917.842ZM562.598 908.432L559.199 920.619H557.125L554.371 911.186H554.324L551.582 920.619H549.508L546.098 908.432H548.125L550.562 918.346H550.609L553.363 908.432H555.332L558.098 918.346H558.145L560.582 908.432H562.598ZM564.262 923.982H562.562L563.699 918.018H565.867L564.262 923.982ZM589.691 920.619H587.723V907.588H587.641L582.25 920.502H580.469L575.078 907.588H574.996V920.619H573.027V903.709H575.477L581.312 917.818H581.406L587.242 903.709H589.691V920.619ZM597.543 909.99C596.598 909.99 595.812 910.318 595.188 910.975C594.57 911.623 594.23 912.459 594.168 913.482H600.789C600.766 912.451 600.457 911.611 599.863 910.963C599.27 910.314 598.496 909.99 597.543 909.99ZM600.742 917.127H602.746C602.566 918.205 602.004 919.092 601.059 919.787C600.121 920.482 598.992 920.83 597.672 920.83C595.93 920.83 594.559 920.268 593.559 919.143C592.559 918.018 592.059 916.494 592.059 914.572C592.059 912.666 592.559 911.131 593.559 909.967C594.566 908.803 595.906 908.221 597.578 908.221C599.219 908.221 600.516 908.771 601.469 909.873C602.422 910.975 602.898 912.451 602.898 914.303V915.076H594.156V915.193C594.156 916.365 594.477 917.303 595.117 918.006C595.758 918.709 596.625 919.061 597.719 919.061C598.484 919.061 599.137 918.885 599.676 918.533C600.215 918.182 600.57 917.713 600.742 917.127ZM610.012 920.83C608.309 920.83 606.941 920.264 605.91 919.131C604.879 917.99 604.363 916.455 604.363 914.525C604.363 912.596 604.879 911.064 605.91 909.932C606.941 908.791 608.309 908.221 610.012 908.221C611.707 908.221 613.07 908.791 614.102 909.932C615.133 911.064 615.648 912.596 615.648 914.525C615.648 916.447 615.133 917.979 614.102 919.119C613.07 920.26 611.707 920.83 610.012 920.83ZM607.398 917.842C608.047 918.639 608.918 919.037 610.012 919.037C611.105 919.037 611.973 918.643 612.613 917.854C613.254 917.057 613.574 915.947 613.574 914.525C613.574 913.104 613.254 911.998 612.613 911.209C611.973 910.412 611.105 910.014 610.012 910.014C608.918 910.014 608.047 910.412 607.398 911.209C606.758 912.006 606.438 913.111 606.438 914.525C606.438 915.939 606.758 917.045 607.398 917.842ZM633.215 908.432L629.816 920.619H627.742L624.988 911.186H624.941L622.199 920.619H620.125L616.715 908.432H618.742L621.18 918.346H621.227L623.98 908.432H625.949L628.715 918.346H628.762L631.199 908.432H633.215ZM634.879 923.982H633.18L634.316 918.018H636.484L634.879 923.982ZM660.309 920.619H658.34V907.588H658.258L652.867 920.502H651.086L645.695 907.588H645.613V920.619H643.645V903.709H646.094L651.93 917.818H652.023L657.859 903.709H660.309V920.619ZM668.16 909.99C667.215 909.99 666.43 910.318 665.805 910.975C665.188 911.623 664.848 912.459 664.785 913.482H671.406C671.383 912.451 671.074 911.611 670.48 910.963C669.887 910.314 669.113 909.99 668.16 909.99ZM671.359 917.127H673.363C673.184 918.205 672.621 919.092 671.676 919.787C670.738 920.482 669.609 920.83 668.289 920.83C666.547 920.83 665.176 920.268 664.176 919.143C663.176 918.018 662.676 916.494 662.676 914.572C662.676 912.666 663.176 911.131 664.176 909.967C665.184 908.803 666.523 908.221 668.195 908.221C669.836 908.221 671.133 908.771 672.086 909.873C673.039 910.975 673.516 912.451 673.516 914.303V915.076H664.773V915.193C664.773 916.365 665.094 917.303 665.734 918.006C666.375 918.709 667.242 919.061 668.336 919.061C669.102 919.061 669.754 918.885 670.293 918.533C670.832 918.182 671.188 917.713 671.359 917.127ZM680.629 920.83C678.926 920.83 677.559 920.264 676.527 919.131C675.496 917.99 674.98 916.455 674.98 914.525C674.98 912.596 675.496 911.064 676.527 909.932C677.559 908.791 678.926 908.221 680.629 908.221C682.324 908.221 683.688 908.791 684.719 909.932C685.75 911.064 686.266 912.596 686.266 914.525C686.266 916.447 685.75 917.979 684.719 919.119C683.688 920.26 682.324 920.83 680.629 920.83ZM678.016 917.842C678.664 918.639 679.535 919.037 680.629 919.037C681.723 919.037 682.59 918.643 683.23 917.854C683.871 917.057 684.191 915.947 684.191 914.525C684.191 913.104 683.871 911.998 683.23 911.209C682.59 910.412 681.723 910.014 680.629 910.014C679.535 910.014 678.664 910.412 678.016 911.209C677.375 912.006 677.055 913.111 677.055 914.525C677.055 915.939 677.375 917.045 678.016 917.842ZM703.832 908.432L700.434 920.619H698.359L695.605 911.186H695.559L692.816 920.619H690.742L687.332 908.432H689.359L691.797 918.346H691.844L694.598 908.432H696.566L699.332 918.346H699.379L701.816 908.432H703.832ZM705.496 923.982H703.797L704.934 918.018H707.102L705.496 923.982ZM730.926 920.619H728.957V907.588H728.875L723.484 920.502H721.703L716.312 907.588H716.23V920.619H714.262V903.709H716.711L722.547 917.818H722.641L728.477 903.709H730.926V920.619ZM738.777 909.99C737.832 909.99 737.047 910.318 736.422 910.975C735.805 911.623 735.465 912.459 735.402 913.482H742.023C742 912.451 741.691 911.611 741.098 910.963C740.504 910.314 739.73 909.99 738.777 909.99ZM741.977 917.127H743.98C743.801 918.205 743.238 919.092 742.293 919.787C741.355 920.482 740.227 920.83 738.906 920.83C737.164 920.83 735.793 920.268 734.793 919.143C733.793 918.018 733.293 916.494 733.293 914.572C733.293 912.666 733.793 911.131 734.793 909.967C735.801 908.803 737.141 908.221 738.812 908.221C740.453 908.221 741.75 908.771 742.703 909.873C743.656 910.975 744.133 912.451 744.133 914.303V915.076H735.391V915.193C735.391 916.365 735.711 917.303 736.352 918.006C736.992 918.709 737.859 919.061 738.953 919.061C739.719 919.061 740.371 918.885 740.91 918.533C741.449 918.182 741.805 917.713 741.977 917.127ZM751.246 920.83C749.543 920.83 748.176 920.264 747.145 919.131C746.113 917.99 745.598 916.455 745.598 914.525C745.598 912.596 746.113 911.064 747.145 909.932C748.176 908.791 749.543 908.221 751.246 908.221C752.941 908.221 754.305 908.791 755.336 909.932C756.367 911.064 756.883 912.596 756.883 914.525C756.883 916.447 756.367 917.979 755.336 919.119C754.305 920.26 752.941 920.83 751.246 920.83ZM748.633 917.842C749.281 918.639 750.152 919.037 751.246 919.037C752.34 919.037 753.207 918.643 753.848 917.854C754.488 917.057 754.809 915.947 754.809 914.525C754.809 913.104 754.488 911.998 753.848 911.209C753.207 910.412 752.34 910.014 751.246 910.014C750.152 910.014 749.281 910.412 748.633 911.209C747.992 912.006 747.672 913.111 747.672 914.525C747.672 915.939 747.992 917.045 748.633 917.842ZM774.449 908.432L771.051 920.619H768.977L766.223 911.186H766.176L763.434 920.619H761.359L757.949 908.432H759.977L762.414 918.346H762.461L765.215 908.432H767.184L769.949 918.346H769.996L772.434 908.432H774.449ZM776.113 923.982H774.414L775.551 918.018H777.719L776.113 923.982ZM450.215 949.619H448.246V936.588H448.164L442.773 949.502H440.992L435.602 936.588H435.52V949.619H433.551V932.709H436L441.836 946.818H441.93L447.766 932.709H450.215V949.619ZM458.066 938.99C457.121 938.99 456.336 939.318 455.711 939.975C455.094 940.623 454.754 941.459 454.691 942.482H461.312C461.289 941.451 460.98 940.611 460.387 939.963C459.793 939.314 459.02 938.99 458.066 938.99ZM461.266 946.127H463.27C463.09 947.205 462.527 948.092 461.582 948.787C460.645 949.482 459.516 949.83 458.195 949.83C456.453 949.83 455.082 949.268 454.082 948.143C453.082 947.018 452.582 945.494 452.582 943.572C452.582 941.666 453.082 940.131 454.082 938.967C455.09 937.803 456.43 937.221 458.102 937.221C459.742 937.221 461.039 937.771 461.992 938.873C462.945 939.975 463.422 941.451 463.422 943.303V944.076H454.68V944.193C454.68 945.365 455 946.303 455.641 947.006C456.281 947.709 457.148 948.061 458.242 948.061C459.008 948.061 459.66 947.885 460.199 947.533C460.738 947.182 461.094 946.713 461.266 946.127ZM470.535 949.83C468.832 949.83 467.465 949.264 466.434 948.131C465.402 946.99 464.887 945.455 464.887 943.525C464.887 941.596 465.402 940.064 466.434 938.932C467.465 937.791 468.832 937.221 470.535 937.221C472.23 937.221 473.594 937.791 474.625 938.932C475.656 940.064 476.172 941.596 476.172 943.525C476.172 945.447 475.656 946.979 474.625 948.119C473.594 949.26 472.23 949.83 470.535 949.83ZM467.922 946.842C468.57 947.639 469.441 948.037 470.535 948.037C471.629 948.037 472.496 947.643 473.137 946.854C473.777 946.057 474.098 944.947 474.098 943.525C474.098 942.104 473.777 940.998 473.137 940.209C472.496 939.412 471.629 939.014 470.535 939.014C469.441 939.014 468.57 939.412 467.922 940.209C467.281 941.006 466.961 942.111 466.961 943.525C466.961 944.939 467.281 946.045 467.922 946.842ZM493.738 937.432L490.34 949.619H488.266L485.512 940.186H485.465L482.723 949.619H480.648L477.238 937.432H479.266L481.703 947.346H481.75L484.504 937.432H486.473L489.238 947.346H489.285L491.723 937.432H493.738Z" fill="#284495" fill-opacity="0.69"/>
</svg>
