<svg width="25" height="26" viewBox="0 0 25 26" fill="none" xmlns="http://www.w3.org/2000/svg">
<g clip-path="url(#clip0_842_460)">
<g filter="url(#filter0_d_842_460)">
<path d="M5 12C4.44772 12 4 12.4477 4 13C4 13.5523 4.44772 14 5 14V12ZM20 14C20.5523 14 21 13.5523 21 13C21 12.4477 20.5523 12 20 12V14ZM13.5 5.5C13.5 4.94772 13.0523 4.5 12.5 4.5C11.9477 4.5 11.5 4.94772 11.5 5.5L13.5 5.5ZM11.5 20.5C11.5 21.0523 11.9477 21.5 12.5 21.5C13.0523 21.5 13.5 21.0523 13.5 20.5H11.5ZM5 14H20V12H5V14ZM11.5 5.5L11.5 20.5H13.5V5.5L11.5 5.5Z" fill="white"/>
</g>
</g>
<defs>
<filter id="filter0_d_842_460" x="0" y="3.5" width="25" height="25" filterUnits="userSpaceOnUse" color-interpolation-filters="sRGB">
<feFlood flood-opacity="0" result="BackgroundImageFix"/>
<feColorMatrix in="SourceAlpha" type="matrix" values="0 0 0 0 0 0 0 0 0 0 0 0 0 0 0 0 0 0 127 0" result="hardAlpha"/>
<feOffset dy="3"/>
<feGaussianBlur stdDeviation="2"/>
<feComposite in2="hardAlpha" operator="out"/>
<feColorMatrix type="matrix" values="0 0 0 0 0 0 0 0 0 0 0 0 0 0 0 0 0 0 0.25 0"/>
<feBlend mode="normal" in2="BackgroundImageFix" result="effect1_dropShadow_842_460"/>
<feBlend mode="normal" in="SourceGraphic" in2="effect1_dropShadow_842_460" result="shape"/>
</filter>
<clipPath id="clip0_842_460">
<rect width="25" height="25" fill="white" transform="translate(0 0.5)"/>
</clipPath>
</defs>
</svg>
