<svg width="10" height="12" viewBox="0 0 10 12" fill="none" xmlns="http://www.w3.org/2000/svg">
<path d="M6.03947 2.95536C6.03947 3.70385 5.4327 4.31062 4.68421 4.31062V5.81062C6.26113 5.81062 7.53947 4.53228 7.53947 2.95536H6.03947ZM4.68421 4.31062C3.93572 4.31062 3.32895 3.70385 3.32895 2.95536H1.82895C1.82895 4.53228 3.10729 5.81062 4.68421 5.81062V4.31062ZM3.32895 2.95536C3.32895 2.20687 3.93572 1.6001 4.68421 1.6001V0.100098C3.10729 0.100098 1.82895 1.37844 1.82895 2.95536H3.32895ZM4.68421 1.6001C5.4327 1.6001 6.03947 2.20687 6.03947 2.95536H7.53947C7.53947 1.37844 6.26113 0.100098 4.68421 0.100098V1.6001ZM3.10526 7.38957H6.26316V5.88957H3.10526V7.38957ZM6.26316 10.1001H3.10526V11.6001H6.26316V10.1001ZM3.10526 10.1001C2.35677 10.1001 1.75 9.49333 1.75 8.74483H0.25C0.25 10.3218 1.52834 11.6001 3.10526 11.6001V10.1001ZM7.61842 8.74483C7.61842 9.49333 7.01165 10.1001 6.26316 10.1001V11.6001C7.84008 11.6001 9.11842 10.3218 9.11842 8.74483H7.61842ZM6.26316 7.38957C7.01165 7.38957 7.61842 7.99634 7.61842 8.74483H9.11842C9.11842 7.16792 7.84008 5.88957 6.26316 5.88957V7.38957ZM3.10526 5.88957C1.52834 5.88957 0.25 7.16792 0.25 8.74483H1.75C1.75 7.99634 2.35677 7.38957 3.10526 7.38957V5.88957Z" fill="#2D264B"/>
</svg>
