<svg width="18" height="17" viewBox="0 0 18 17" fill="none" xmlns="http://www.w3.org/2000/svg">
<path d="M9.00033 0.166748C4.40782 0.166748 0.666992 3.90758 0.666992 8.50008C0.666992 13.0926 4.40782 16.8334 9.00033 16.8334C13.5928 16.8334 17.3337 13.0926 17.3337 8.50008C17.3337 3.90758 13.5928 0.166748 9.00033 0.166748ZM9.00033 1.83341C12.6921 1.83341 15.667 4.80831 15.667 8.50008C15.667 12.1918 12.6921 15.1667 9.00033 15.1667C5.30856 15.1667 2.33366 12.1918 2.33366 8.50008C2.33366 4.80831 5.30856 1.83341 9.00033 1.83341ZM8.16699 4.33341V7.66675H4.83366V9.33341H8.16699V12.6667H9.83366V9.33341H13.167V7.66675H9.83366V4.33341H8.16699Z" fill="black"/>
</svg>
