<svg width="15" height="16" viewBox="0 0 15 16" fill="none" xmlns="http://www.w3.org/2000/svg">
<path d="M11.5679 11.5109C11.3726 11.3157 11.0561 11.3156 10.8608 11.5109C10.6655 11.7062 10.6655 12.0228 10.8608 12.218L11.5679 11.5109ZM13.1464 14.5037C13.3417 14.699 13.6583 14.699 13.8536 14.5037C14.0488 14.3084 14.0488 13.9919 13.8536 13.7966L13.1464 14.5037ZM5.70268 4.39345C5.97542 4.35025 6.1615 4.09413 6.11831 3.82139C6.07511 3.54864 5.81899 3.36256 5.54624 3.40576L5.70268 4.39345ZM2.7556 6.19639C2.7124 6.46913 2.89849 6.72526 3.17123 6.76845C3.44397 6.81165 3.70009 6.62557 3.74329 6.35283L2.7556 6.19639ZM10.8608 12.218L13.1464 14.5037L13.8536 13.7966L11.5679 11.5109L10.8608 12.218ZM6.64287 11.9358C4.07868 11.9358 2 9.85717 2 7.29299H1C1 10.4095 3.5264 12.9358 6.64287 12.9358V11.9358ZM11.2857 7.29299C11.2857 9.85717 9.20705 11.9358 6.64287 11.9358V12.9358C9.75933 12.9358 12.2857 10.4095 12.2857 7.29299H11.2857ZM6.64287 2.65015C9.20705 2.65015 11.2857 4.72882 11.2857 7.29299H12.2857C12.2857 4.17653 9.75933 1.65015 6.64287 1.65015V2.65015ZM6.64287 1.65015C3.5264 1.65015 1 4.17653 1 7.29299H2C2 4.72882 4.07868 2.65015 6.64287 2.65015V1.65015ZM5.54624 3.40576C4.10975 3.63328 2.98312 4.7599 2.7556 6.19639L3.74329 6.35283C3.90304 5.34423 4.69407 4.55319 5.70268 4.39345L5.54624 3.40576Z" fill="#171717"/>
</svg>
