<svg width="44" height="49" viewBox="0 0 44 49" fill="none" xmlns="http://www.w3.org/2000/svg">
<path d="M8.89372 25.8486L8.89376 25.8486L8.89222 25.8425C7.34432 19.6689 8.20124 13.7108 10.8939 9.77304C12.3371 8.10352 14.0644 6.77806 15.9711 5.87268C17.8855 4.96367 19.9427 4.49609 22.0197 4.49609C24.0968 4.49609 26.154 4.96367 28.0684 5.87268C29.9751 6.77806 31.7023 8.10352 33.1455 9.77303C35.8352 13.7069 36.6061 19.6647 35.1456 25.8696C33.5647 32.5313 29.3418 37.3658 25.8701 41.3139L25.87 41.3138L25.8618 41.3236L24.161 43.3603C24.1603 43.3611 24.1596 43.3619 24.1589 43.3627C23.8772 43.6906 23.5445 43.9525 23.1804 44.1368C22.8126 44.3184 22.4175 44.411 22.0197 44.411C21.6219 44.411 21.2267 44.3184 20.8589 44.1367C20.4877 43.9491 20.1492 43.6809 19.864 43.3445C19.8634 43.3438 19.8628 43.3431 19.8622 43.3424L18.1794 41.3052L18.1745 41.2993L18.1694 41.2935C14.6976 37.3453 10.4746 32.5106 8.89372 25.8486ZM22.0107 26.8112L22.5106 26.811V26.772C23.7055 26.679 24.8574 26.242 25.8515 25.5051C26.9832 24.6662 27.8582 23.4777 28.3732 22.0963L28.3735 22.0957C28.9306 20.5955 29.0392 18.9384 28.6848 17.3664C28.3305 15.7943 27.5297 14.382 26.3913 13.3426C25.252 12.3023 23.8345 11.691 22.3465 11.6103C20.8582 11.5296 19.3916 11.9847 18.1638 12.8991C16.9372 13.8126 16.0155 15.1342 15.5252 16.6621C15.0349 18.1898 14.9989 19.8508 15.422 21.4023C15.8451 22.954 16.7075 24.3223 17.8916 25.2997C19.0767 26.278 20.5207 26.8116 22.0107 26.8112Z" fill="#CF5D5D" stroke="#CF5D5D"/>
<rect x="13" y="11" width="18" height="19" rx="9" fill="#FFF8E7"/>
<g clip-path="url(#clip0_650_5169)">
<path d="M23.7391 17.4683L19.7802 15.8978C19.4409 15.7646 19.0652 15.7839 18.7422 15.9558L17.8098 16.4478C17.5844 16.5681 17.5681 16.9011 17.7794 17.0451L20.7633 19.0753L18.7625 20.156L17.5803 19.5995C17.4036 19.5158 17.1984 19.5201 17.0258 19.6124L16.3717 19.9583C16.1828 20.0593 16.132 20.3193 16.2702 20.489L17.755 22.3216C17.8789 22.4742 18.0597 22.5622 18.2486 22.5622H21.0456C21.1472 22.5622 21.2467 22.5365 21.3361 22.4892L26.8794 19.5587C27.8239 19.0581 28.5552 18.1988 28.9269 17.1525C29.1198 16.6111 28.74 16.031 28.1916 16.031H27.0256C26.6153 16.031 26.2091 16.1341 25.8434 16.3318L23.7391 17.4683ZM16 25.3122C16 25.6925 16.2905 25.9997 16.65 25.9997H28.35C28.7095 25.9997 29 25.6925 29 25.3122C29 24.932 28.7095 24.6247 28.35 24.6247H16.65C16.2905 24.6247 16 24.932 16 25.3122Z" fill="#CF5D5D"/>
</g>
<defs>
<clipPath id="clip0_650_5169">
<rect width="13" height="11" fill="white" transform="translate(16 15)"/>
</clipPath>
</defs>
</svg>
