<svg width="44" height="49" viewBox="0 0 44 49" fill="none" xmlns="http://www.w3.org/2000/svg">
<path d="M33.5422 9.46743C32.0519 7.73763 30.263 6.36125 28.2828 5.42102C26.3027 4.48078 24.1723 3.99609 22.0197 3.99609C19.8671 3.99609 17.7367 4.48078 15.7566 5.42102C13.7765 6.36125 11.9875 7.73763 10.4972 9.46743C7.69223 13.5508 6.83057 19.6758 8.40723 25.9641C10.0206 32.7628 14.3289 37.6833 17.7939 41.6237L19.4806 43.6653C19.8082 44.0524 20.2005 44.3645 20.6356 44.5841C21.0714 44.7996 21.5429 44.911 22.0197 44.911C22.4966 44.911 22.9681 44.7996 23.4039 44.5841C23.8309 44.3683 24.2167 44.0634 24.5406 43.6858L26.2456 41.6441C29.7106 37.7037 34.0189 32.7833 35.6322 25.9845C37.1172 19.6758 36.3472 13.5508 33.5422 9.46743ZM22.0106 26.3112C20.6419 26.3115 19.3094 25.8217 18.2099 24.9141C17.1104 24.0065 16.3021 22.7292 15.9044 21.2708C15.5067 19.8124 15.5406 18.2502 16.0013 16.8149C16.4619 15.3797 17.3248 14.1474 18.4625 13.3001C19.6002 12.4528 20.9524 12.0354 22.3194 12.1096C23.6864 12.1837 24.9958 12.7455 26.0542 13.7118C27.1126 14.6782 27.8639 15.998 28.1971 17.4763C28.5303 18.9547 28.4278 20.5131 27.9047 21.9216C27.4213 23.2181 26.6031 24.3255 25.5537 25.1034C24.5043 25.8813 23.2711 26.2945 22.0106 26.2908V26.3112Z" fill="#4F7394"/>
<rect x="13" y="11" width="18" height="19" rx="9" fill="#FFF8E7"/>
<g clip-path="url(#clip0_650_5195)">
<path d="M16.0061 17.5857L16 15.4609C16 15.2396 16.193 15.0764 16.3961 15.1236L17.1192 15.2934C17.3345 15.3428 17.5092 15.5061 17.5864 15.723L17.95 16.75L20.5358 17.5578L19.6928 14.4383C19.6339 14.2191 19.7903 14 20.0056 14H20.8202C21.0558 14 21.2711 14.1332 21.3869 14.3502L23.6009 18.5139L25.7784 19.1949C26.1014 19.2959 26.4041 19.4635 26.6661 19.6848L27.3648 20.2777C27.8523 20.6902 27.7325 21.5088 27.1475 21.743C26.3106 22.0781 25.3966 22.1318 24.5312 21.8934L18.472 20.2262C18.2466 20.1639 18.0414 20.0393 17.8769 19.8631L16.193 18.0691C16.0731 17.9402 16.0041 17.7662 16.0041 17.5857H16.0061ZM16.65 23.625H28.35C28.7095 23.625 29 23.9322 29 24.3125C29 24.6928 28.7095 25 28.35 25H16.65C16.2905 25 16 24.6928 16 24.3125C16 23.9322 16.2905 23.625 16.65 23.625ZM18.6 21.9062C18.6 21.7239 18.6685 21.549 18.7904 21.4201C18.9123 21.2912 19.0776 21.2188 19.25 21.2188C19.4224 21.2188 19.5877 21.2912 19.7096 21.4201C19.8315 21.549 19.9 21.7239 19.9 21.9062C19.9 22.0886 19.8315 22.2635 19.7096 22.3924C19.5877 22.5213 19.4224 22.5938 19.25 22.5938C19.0776 22.5938 18.9123 22.5213 18.7904 22.3924C18.6685 22.2635 18.6 22.0886 18.6 21.9062ZM21.2 21.5625C21.3724 21.5625 21.5377 21.6349 21.6596 21.7639C21.7815 21.8928 21.85 22.0677 21.85 22.25C21.85 22.4323 21.7815 22.6072 21.6596 22.7361C21.5377 22.8651 21.3724 22.9375 21.2 22.9375C21.0276 22.9375 20.8623 22.8651 20.7404 22.7361C20.6185 22.6072 20.55 22.4323 20.55 22.25C20.55 22.0677 20.6185 21.8928 20.7404 21.7639C20.8623 21.6349 21.0276 21.5625 21.2 21.5625Z" fill="#4F7394"/>
</g>
<defs>
<clipPath id="clip0_650_5195">
<rect width="13" height="11" fill="white" transform="translate(16 14)"/>
</clipPath>
</defs>
</svg>
