<svg width="18" height="16" viewBox="0 0 18 16" fill="none" xmlns="http://www.w3.org/2000/svg">
<path d="M9 13.75C9.41421 13.75 9.75 13.4142 9.75 13C9.75 12.5858 9.41421 12.25 9 12.25V13.75ZM1 12.25C0.585787 12.25 0.25 12.5858 0.25 13C0.25 13.4142 0.585786 13.75 1 13.75L1 12.25ZM9 2.25C8.58579 2.25 8.25 2.58579 8.25 3C8.25 3.41421 8.58579 3.75 9 3.75V2.25ZM17 3.75C17.4142 3.75 17.75 3.41421 17.75 3C17.75 2.58579 17.4142 2.25 17 2.25V3.75ZM9 12.25L1 12.25L1 13.75L9 13.75V12.25ZM9 3.75L17 3.75V2.25L9 2.25V3.75ZM0.25 3C0.25 4.51878 1.48122 5.75 3 5.75V4.25C2.30964 4.25 1.75 3.69036 1.75 3H0.25ZM3 5.75C4.51878 5.75 5.75 4.51878 5.75 3H4.25C4.25 3.69036 3.69036 4.25 3 4.25V5.75ZM5.75 3C5.75 1.48122 4.51878 0.25 3 0.25V1.75C3.69036 1.75 4.25 2.30964 4.25 3H5.75ZM3 0.25C1.48122 0.25 0.25 1.48122 0.25 3H1.75C1.75 2.30964 2.30964 1.75 3 1.75V0.25ZM17.75 13C17.75 11.4812 16.5188 10.25 15 10.25V11.75C15.6904 11.75 16.25 12.3096 16.25 13H17.75ZM15 10.25C13.4812 10.25 12.25 11.4812 12.25 13H13.75C13.75 12.3096 14.3096 11.75 15 11.75V10.25ZM12.25 13C12.25 14.5188 13.4812 15.75 15 15.75V14.25C14.3096 14.25 13.75 13.6904 13.75 13H12.25ZM15 15.75C16.5188 15.75 17.75 14.5188 17.75 13H16.25C16.25 13.6904 15.6904 14.25 15 14.25V15.75Z" fill="#313131"/>
</svg>
