<svg width="22" height="22" viewBox="0 0 22 22" fill="none" xmlns="http://www.w3.org/2000/svg">
<g clip-path="url(#clip0_313_4540)">
<g filter="url(#filter0_f_313_4540)">
<path d="M18.1655 17.5104C18.2373 17.7925 16.049 18.593 13.2777 19.2983C10.307 19.7732 8.13 20.0645 8.13 20.0645C8.13 20.0645 10.417 19.2869 13.0177 18.2767C15.789 17.5714 18.0937 17.2283 18.1655 17.5104Z" fill="black"/>
</g>
<path d="M16.7711 4.25046C16.026 3.47382 15.1315 2.85585 14.1414 2.43371C13.1514 2.01156 12.0862 1.79395 11.0099 1.79395C9.93357 1.79395 8.86837 2.01156 7.87831 2.43371C6.88826 2.85585 5.99377 3.47382 5.24862 4.25046C3.84612 6.0838 3.41528 8.8338 4.20362 11.6571C5.01028 14.7096 7.16445 16.9188 8.89695 18.688L9.74028 19.6046C9.90408 19.7784 10.1003 19.9186 10.3178 20.0171C10.5357 20.1139 10.7714 20.1639 11.0099 20.1639C11.2483 20.1639 11.4841 20.1139 11.702 20.0171C11.9154 19.9203 12.1084 19.7833 12.2703 19.6138L13.1228 18.6971C14.8553 16.928 17.0095 14.7188 17.8161 11.6663C18.5586 8.8338 18.1736 6.0838 16.7711 4.25046ZM11.0053 11.813C10.321 11.8131 9.65472 11.5932 9.10495 11.1857C8.55519 10.7782 8.15103 10.2047 7.95218 9.54992C7.75333 8.89513 7.77031 8.19374 8.00063 7.54933C8.23095 6.90493 8.66239 6.35167 9.23123 5.97126C9.80008 5.59085 10.4762 5.40345 11.1597 5.43674C11.8432 5.47002 12.4979 5.72223 13.0271 6.15612C13.5563 6.59 13.9319 7.18257 14.0985 7.8463C14.2652 8.51003 14.2139 9.20975 13.9524 9.84213C13.7107 10.4242 13.3015 10.9215 12.7769 11.2707C12.2522 11.6199 11.6356 11.8055 11.0053 11.8038V11.813Z" fill="#FFBC11"/>
<rect x="5" y="3" width="12" height="11" rx="5.5" fill="#FFF8E7"/>
<path fill-rule="evenodd" clip-rule="evenodd" d="M8.13574 10.2249C8.13574 10.9758 8.81229 11.5845 9.64686 11.5845C10.2564 11.5845 10.471 11.2176 11.0206 11.2176C11.5702 11.2176 11.7848 11.5845 12.3944 11.5845C13.2289 11.5845 13.9055 10.9758 13.9055 10.2249C13.9055 9.60215 13.44 9.07717 12.805 8.9162C12.806 8.89935 12.8065 8.88241 12.8065 8.8654C12.8065 8.11455 12.1275 7.50586 11.0206 7.50586C9.91374 7.50586 9.23474 8.11455 9.23474 8.8654C9.23474 8.88241 9.23523 8.89935 9.23619 8.9162C8.60119 9.07717 8.13574 9.60215 8.13574 10.2249Z" fill="#FFBC11"/>
<path fill-rule="evenodd" clip-rule="evenodd" d="M10.2047 6.93638C11.0725 6.5787 10.9526 6.12738 10.6968 5.55778C10.441 4.98818 9.76507 4.56815 9.23748 4.75993C8.90956 4.87912 8.82426 5.09507 8.78624 5.46265C8.74823 5.83023 8.68944 6.0367 8.78624 6.25227C9.04204 6.82187 9.33685 7.29405 10.2047 6.93638Z" fill="#FFBC11"/>
<path fill-rule="evenodd" clip-rule="evenodd" d="M12.0258 6.93638C11.1579 6.5787 11.2779 6.12738 11.5337 5.55778C11.7894 4.98818 12.4654 4.56815 12.993 4.75993C13.3209 4.87912 13.4062 5.09507 13.4442 5.46265C13.4822 5.83023 13.541 6.0367 13.4442 6.25227C13.1884 6.82187 12.8936 7.29405 12.0258 6.93638Z" fill="#FFBC11"/>
<path d="M8.85919 8.40323C9.18108 8.11363 9.07235 7.54628 8.61634 7.13601C8.16033 6.72575 7.52972 6.62793 7.20783 6.91753C6.88594 7.20713 6.99467 7.77448 7.45068 8.18475C7.90669 8.59501 8.5373 8.69283 8.85919 8.40323Z" fill="#FFBC11"/>
<path d="M13.0885 8.5112C13.3931 8.81556 14.0285 8.74757 14.5078 8.35934C14.987 7.97111 15.1286 7.40965 14.824 7.10529C14.5194 6.80093 13.884 6.86892 13.4047 7.25716C12.9255 7.64539 12.7839 8.20684 13.0885 8.5112Z" fill="#FFBC11"/>
</g>
<defs>
<filter id="filter0_f_313_4540" x="5.12988" y="14.4116" width="16.0371" height="8.65283" filterUnits="userSpaceOnUse" color-interpolation-filters="sRGB">
<feFlood flood-opacity="0" result="BackgroundImageFix"/>
<feBlend mode="normal" in="SourceGraphic" in2="BackgroundImageFix" result="shape"/>
<feGaussianBlur stdDeviation="1.5" result="effect1_foregroundBlur_313_4540"/>
</filter>
<clipPath id="clip0_313_4540">
<rect width="22" height="22" fill="white"/>
</clipPath>
</defs>
</svg>
