<svg width="11" height="14" viewBox="0 0 11 14" fill="none" xmlns="http://www.w3.org/2000/svg">
<path d="M0.25 12.55C0.25 12.9643 0.585786 13.3 1 13.3C1.41421 13.3 1.75 12.9643 1.75 12.55H0.25ZM9.07819 3.55879L8.6533 2.94076L8.6533 2.94076L9.07819 3.55879ZM8.90633 3.67695L9.33122 4.29498L9.33122 4.29498L8.90633 3.67695ZM8.90633 6.14537L9.33122 5.52734L9.33122 5.52734L8.90633 6.14537ZM9.07819 6.26353L8.6533 6.88156L8.6533 6.88156L9.07819 6.26353ZM1.75 12.55L1.75 3.55005H0.25L0.25 12.55H1.75ZM3 2.30005H8.4543V0.800049H3V2.30005ZM8.4543 7.52227H1V9.02227H8.4543V7.52227ZM8.6533 2.94076L8.48143 3.05892L9.33122 4.29498L9.50309 4.17682L8.6533 2.94076ZM8.48143 6.7634L8.6533 6.88156L9.50309 5.6455L9.33122 5.52734L8.48143 6.7634ZM8.6533 6.88156C8.74861 6.94709 8.80556 7.05534 8.80556 7.17101H10.3056C10.3056 6.5614 10.0054 5.99086 9.50309 5.6455L8.6533 6.88156ZM8.80556 2.65131C8.80556 2.76698 8.74861 2.87523 8.6533 2.94076L9.50309 4.17682C10.0054 3.83146 10.3056 3.26092 10.3056 2.65131H8.80556ZM8.48143 3.05892C7.18232 3.95206 7.18232 5.87026 8.48143 6.7634L9.33122 5.52734C8.89905 5.23022 8.89905 4.5921 9.33122 4.29498L8.48143 3.05892ZM8.4543 9.02227C9.47672 9.02227 10.3056 8.19343 10.3056 7.17101H8.80556C8.80556 7.36501 8.64829 7.52227 8.4543 7.52227V9.02227ZM8.4543 2.30005C8.64829 2.30005 8.80556 2.45731 8.80556 2.65131H10.3056C10.3056 1.62889 9.47672 0.800049 8.4543 0.800049V2.30005ZM1.75 3.55005C1.75 3.05744 1.75159 2.76344 1.77992 2.55271C1.79291 2.45615 1.8082 2.40779 1.81716 2.38601C1.81923 2.38097 1.82085 2.37765 1.82186 2.37572C1.82286 2.37381 1.82341 2.37296 1.82347 2.37288C1.82351 2.37281 1.82335 2.37305 1.82307 2.3734C1.82279 2.37374 1.82277 2.37373 1.82322 2.37327L0.762564 1.31261C0.45354 1.62164 0.341093 1.99736 0.2933 2.35284C0.248408 2.68675 0.25 3.09985 0.25 3.55005H1.75ZM3 0.800049C2.5498 0.800049 2.1367 0.798456 1.80279 0.843348C1.44731 0.891141 1.07159 1.00359 0.762564 1.31261L1.82322 2.37327C1.82368 2.37282 1.8237 2.37284 1.82335 2.37312C1.823 2.3734 1.82277 2.37356 1.82283 2.37351C1.82292 2.37346 1.82376 2.37291 1.82567 2.37191C1.8276 2.3709 1.83092 2.36928 1.83596 2.36721C1.85774 2.35825 1.90611 2.34295 2.00266 2.32997C2.21339 2.30164 2.50739 2.30005 3 2.30005V0.800049Z" fill="#2D264B"/>
</svg>
