<svg width="9" height="9" viewBox="0 0 9 9" fill="none" xmlns="http://www.w3.org/2000/svg">
<path d="M3.35377 1.83279C3.71455 0.722404 5.28545 0.722404 5.64623 1.83279C5.80758 2.32937 6.27033 2.66558 6.79247 2.66558C7.95999 2.66558 8.44543 4.15959 7.50088 4.84584C7.07846 5.15274 6.90171 5.69674 7.06306 6.19332C7.42384 7.3037 6.15296 8.22705 5.20841 7.5408C4.786 7.2339 4.214 7.2339 3.79159 7.5408C2.84704 8.22705 1.57616 7.3037 1.93694 6.19332C2.09829 5.69674 1.92154 5.15274 1.49912 4.84584C0.554572 4.15959 1.04001 2.66558 2.20753 2.66558C2.72967 2.66558 3.19242 2.32937 3.35377 1.83279Z" stroke="#313131" stroke-width="1.5"/>
</svg>
